<svg xmlns="http://www.w3.org/2000/svg" version="1.1" xmlns:xlink="http://www.w3.org/1999/xlink" width="512" height="512" x="0" y="0" viewBox="0 0 64 64" style="enable-background:new 0 0 512 512" xml:space="preserve" class=""><g><path fill="#59d9ff" d="M25 62C12.29 62 2 51.71 2 39h23z" opacity="1" data-original="#59d9ff"></path><path fill="#3dcc97" d="M32 3C15.98 3 3 15.98 3 32h29z" opacity="1" data-original="#3dcc97"></path><path fill="#ffe18f" d="M61 32c0 16.02-12.98 29-29 29V32z" opacity="1" data-original="#ffe18f"></path><path fill="#7390bf" d="M32 32h29C61 15.98 48.02 3 32 3z" opacity="1" data-original="#7390bf"></path><path fill="#36b385" d="M32 3v4C18.19 7 7 18.19 7 32H3C3 15.98 15.98 3 32 3z" opacity="1" data-original="#36b385"></path><path fill="#ffda73" d="M61 32c0 16.02-12.98 29-29 29v-4c13.81 0 25-11.19 25-25z" opacity="1" data-original="#ffda73"></path><path fill="#647da6" d="M61 32h-4C57 18.19 45.81 7 32 7V3c16.02 0 29 12.98 29 29z" opacity="1" data-original="#647da6"></path><circle cx="49" cy="15" r="11" fill="#ffda73" opacity="1" data-original="#ffda73"></circle><path fill="#30c6f2" d="M25 59v3C12.29 62 2 51.71 2 39h3c0 11.05 8.95 20 20 20z" opacity="1" data-original="#30c6f2"></path><rect width="4" height="21" x="7" y="6" fill="#24c3f2" rx="1" transform="rotate(180 9 16.5)" opacity="1" data-original="#24c3f2"></rect><rect width="4" height="14" x="15" y="13" fill="#ffda73" rx="1" transform="rotate(180 17 20)" opacity="1" data-original="#ffda73"></rect><rect width="4" height="9" x="23" y="18" fill="#e66d67" rx="1" transform="rotate(180 25 22.5)" opacity="1" data-original="#e66d67"></rect><path fill="#e66d67" d="M40 42h4v7h-4z" opacity="1" data-original="#e66d67"></path><path fill="#36b385" d="M49 46h4v7h-4z" opacity="1" data-original="#36b385"></path><path fill="#e66d67" d="M58 42h4v7h-4z" opacity="1" data-original="#e66d67"></path><path d="M25 63c.55 0 1-.45 1-1V39c0-.55-.45-1-1-1H2c-.55 0-1 .45-1 1 0 13.23 10.77 24 24 24zm-9.44-4.15L24 50.41v10.56a21.77 21.77 0 0 1-8.44-2.13zM13.58 40l-1.29 1.29 1.41 1.41 2.71-2.71h6.17l-9.33 9.33 1.41 1.41 9.33-9.33v6.17L13.71 57.85c-1.27-.76-2.45-1.65-3.53-2.64l2.64-2.64-1.41-1.41-2.64 2.64a22.7 22.7 0 0 1-2.64-3.53l5.57-5.57-1.41-1.41-5.14 5.14a21.948 21.948 0 0 1-2.13-8.44h10.57z" fill="#000000" opacity="1" data-original="#000000"></path><path d="M3 33h28v28c0 .55.45 1 1 1 5.92 0 11.64-1.72 16.55-4.97l-1.11-1.67c-4.3 2.85-9.28 4.44-14.45 4.62V33h26.96c-.05 1.28-.15 2.56-.37 3.83l1.97.34c.29-1.71.44-3.45.44-5.17 0-4.02-.79-7.9-2.32-11.55.84-1.64 1.32-3.48 1.32-5.45 0-4.53-2.51-8.63-6.54-10.69l-.91 1.78A9.956 9.956 0 0 1 59 15c0 5.51-4.49 10-10 10a9.9 9.9 0 0 1-4.54-1.09l-.91 1.78c1.7.87 3.53 1.31 5.46 1.31 3.77 0 7.14-1.75 9.34-4.49.98 2.72 1.53 5.56 1.63 8.49H33.01V4.03c2.93.1 5.77.65 8.49 1.63-2.73 2.2-4.49 5.57-4.49 9.34s1.59 6.97 4.36 9.26l1.27-1.54A9.98 9.98 0 0 1 39 15.01c0-5.51 4.49-10 10-10 .93 0 1.84.13 2.73.38l.54-1.92c-1.06-.3-2.16-.45-3.27-.45-1.96 0-3.81.48-5.45 1.32A29.706 29.706 0 0 0 32 2.02c-6.75 0-13.36 2.3-18.62 6.48l1.24 1.57c4.72-3.75 10.37-5.79 16.38-6V31H4.02c.08-2.14.39-4.26.95-6.32l-1.93-.52C2.35 26.7 2.01 29.34 2.01 32c0 .55.45 1 1 1z" fill="#000000" opacity="1" data-original="#000000"></path><path d="M8 5c-1.1 0-2 .9-2 2v19c0 1.1.9 2 2 2h2c1.1 0 2-.9 2-2V7c0-1.1-.9-2-2-2zm2 21H8V7h2zM18 28c1.1 0 2-.9 2-2V14c0-1.1-.9-2-2-2h-2c-1.1 0-2 .9-2 2v12c0 1.1.9 2 2 2zm-2-14h2v12h-2zM26 28c1.1 0 2-.9 2-2v-7c0-1.1-.9-2-2-2h-2c-1.1 0-2 .9-2 2v7c0 1.1.9 2 2 2zm-2-9h2v7h-2zM43 52v-2h1c.55 0 1-.45 1-1v-7c0-.55-.45-1-1-1h-1v-2h-2v2h-1c-.55 0-1 .45-1 1v7c0 .55.45 1 1 1h1v2zm-2-9h2v5h-2zM52 56v-2h1c.55 0 1-.45 1-1v-7c0-.55-.45-1-1-1h-1v-2h-2v2h-1c-.55 0-1 .45-1 1v7c0 .55.45 1 1 1h1v2zm-2-9h2v5h-2zM62 41h-1v-2h-2v2h-1c-.55 0-1 .45-1 1v7c0 .55.45 1 1 1h1v2h2v-2h1c.55 0 1-.45 1-1v-7c0-.55-.45-1-1-1zm-1 7h-2v-5h2zM48.38 11.5h1.25c.47 0 .88.57.88 1.25h2c0-1.65-1.09-3-2.5-3.21V8h-2v1.54c-1.41.21-2.5 1.56-2.5 3.21 0 1.79 1.29 3.25 2.88 3.25h1.25c.47 0 .88.57.88 1.25s-.4 1.25-.88 1.25h-1.25c-.47 0-.88-.57-.88-1.25h-2c0 1.65 1.09 3 2.5 3.21V22h2v-1.54c1.41-.21 2.5-1.56 2.5-3.21 0-1.79-1.29-3.25-2.88-3.25h-1.25c-.47 0-.88-.57-.88-1.25s.4-1.25.88-1.25z" fill="#000000" opacity="1" data-original="#000000"></path></g></svg>