<svg xmlns="http://www.w3.org/2000/svg" version="1.1" xmlns:xlink="http://www.w3.org/1999/xlink" width="512" height="512" x="0" y="0" viewBox="0 0 60 60" style="enable-background:new 0 0 512 512" xml:space="preserve" class=""><g><g fill="none"><g transform="translate(1)"><path fill="#ffdc00" d="M44 3v38a2.006 2.006 0 0 1-2 2c-39 0-36.3-.041-37 .09v-42C5.7.958 2.876 1 42 1a2.006 2.006 0 0 1 2 2z" opacity="1" data-original="#ffdc00" class=""></path><path fill="#fec108" d="M44 3v38a2.006 2.006 0 0 1-2 2h-3a2.006 2.006 0 0 0 2-2V3a2.006 2.006 0 0 0-2-2h3a2.006 2.006 0 0 1 2 2z" opacity="1" data-original="#fec108" class=""></path><path fill="#f44335" d="M58 41v4H38.87c.305-.705.684-1.375 1.13-2h2a2.006 2.006 0 0 0 2-2z" opacity="1" data-original="#f44335" class=""></path><path fill="#783e22" d="M44 49v4a2.006 2.006 0 0 1-2 2h-2a10.325 10.325 0 0 1-2-6z" opacity="1" data-original="#783e22"></path><path fill="#37474f" d="M58 38v3H44v-4h13a1 1 0 0 1 1 1z" opacity="1" data-original="#37474f"></path><path fill="#607d8b" d="M55 38v3H44v-4h10a1 1 0 0 1 1 1z" opacity="1" data-original="#607d8b"></path><path fill="#ffe0b2" d="M48 5h5v12h-5z" opacity="1" data-original="#ffe0b2" class=""></path><path fill="#3f51b5" d="M44 5h4v12h-4z" opacity="1" data-original="#3f51b5"></path><path fill="#f44335" d="M58 6v10a1 1 0 0 1-1 1h-4V5h4a1 1 0 0 1 1 1z" opacity="1" data-original="#f44335" class=""></path><path fill="#dfc49c" d="M58 22v10a.947.947 0 0 1-.875 1H44V21h13.125A.947.947 0 0 1 58 22z" opacity="1" data-original="#dfc49c"></path><path fill="#ffe0b2" d="M55 22v10a.936.936 0 0 1-.846 1H44V21h10.154A.936.936 0 0 1 55 22z" opacity="1" data-original="#ffe0b2" class=""></path><circle cx="51" cy="27" r="2" fill="#f44335" opacity="1" data-original="#f44335" class=""></circle><path fill="#f44335" d="M5 1.09v42A6 6 0 0 0 0 49V7a5.99 5.99 0 0 1 5-5.91z" opacity="1" data-original="#f44335" class=""></path><path fill="#dfc49c" d="M40 55c-35.98 0-33.976.031-34.57-.06a5.986 5.986 0 0 1-1.35-11.63C5.362 42.868 4.034 43 40 43a10 10 0 0 0 0 12z" opacity="1" data-original="#dfc49c"></path><path fill="#ffe0b2" d="M37 55c-33.291 0-30.993.028-31.57-.06a5.986 5.986 0 0 1-1.35-11.63c1.361-.469.8-.31 32.92-.31a10 10 0 0 0 0 12z" opacity="1" data-original="#ffe0b2" class=""></path><path fill="#00bcd4" d="M36.94 23.75a13.565 13.565 0 0 1-4.68 5.8 13.656 13.656 0 0 0-7.2-.36 9.721 9.721 0 0 0-4.16 2.32 13.437 13.437 0 0 1-3.59-1.58c.204-.665.361-1.343.47-2.03a11.868 11.868 0 0 0-.27-2.97c-.23-2.06 1.19-3.66 1.36-5.65.189-2.158-2.581-1.919-4.15-2.56a4.686 4.686 0 0 1-2.6-3.61 13.423 13.423 0 0 1 2.32-3.61 24.758 24.758 0 0 0 6.12-.7 6.619 6.619 0 0 0 4.83-3.77 13.45 13.45 0 0 1 5.1 1.37v.01l-.01.01a10.385 10.385 0 0 1-4.17 2.97c-3.473 1.612-3.508 5.2.44 6.07 1.83.41 3.47 1.43 3.48 3.49 0 2.126-1.417 3.8-1.45 5.52a1.92 1.92 0 0 0 2.39 1.91c2.114-.292 3.116-2.052 5.77-2.63z" opacity="1" data-original="#00bcd4"></path><path fill="#60a917" d="M17.51 24.93c.212 1.909.658 2.157-.2 4.99a13.5 13.5 0 0 1-5.19-16.81 4.686 4.686 0 0 0 2.6 3.61c1.568.64 4.339.4 4.15 2.56-.17 1.99-1.59 3.59-1.36 5.65z" opacity="1" data-original="#60a917"></path><g fill="#549414"><path d="M25.39 5.03a6.619 6.619 0 0 1-4.83 3.77 24.758 24.758 0 0 1-6.12.7 13.461 13.461 0 0 1 10.95-4.47zM32.26 29.54v.01a13.489 13.489 0 0 1-11.36 1.96 9.721 9.721 0 0 1 4.16-2.32 13.78 13.78 0 0 1 7.2.35zM38 18.5c0 1.803-.36 3.588-1.06 5.25a9.469 9.469 0 0 0-3.2 1.5c-2.718 2.036-5.016 1.113-4.96-.78.033-1.727 1.45-3.388 1.45-5.52-.01-2.06-1.65-3.08-3.48-3.49-3.95-.871-3.915-4.46-.44-6.07 1.11-.46 2.148-1.08 3.08-1.84.4-.345.77-.727 1.1-1.14A13.608 13.608 0 0 1 38 18.5z" fill="#549414" opacity="1" data-original="#549414"></path></g><path fill="#f44335" d="M17 49v9a1 1 0 0 1-1.45.89l-2.1-1.05a1.017 1.017 0 0 0-.9 0l-2.1 1.05a.993.993 0 0 1-1.44-.78c-.033-.1-.01-.9-.01-9.11z" opacity="1" data-original="#f44335" class=""></path><path fill="#c81e1e" d="M14 49c0 10.008.008 8.9-.014 9.108l1.564.782A1 1 0 0 0 17 58v-9z" opacity="1" data-original="#c81e1e" class=""></path><path fill="#fec108" d="M58 45v3a1 1 0 0 1-1 1H38c0-1.38.296-2.745.87-4z" opacity="1" data-original="#fec108" class=""></path><path fill="#ffdc00" d="M55 45v3a1 1 0 0 1-1 1H38c0-1.38.296-2.745.87-4z" opacity="1" data-original="#ffdc00" class=""></path><path fill="#c81e1e" d="M55 41h3v4h-3z" opacity="1" data-original="#c81e1e" class=""></path></g><g fill="#000"><path d="M0 7v42a7.008 7.008 0 0 0 7 7h2v2a2 2 0 0 0 2.9 1.788l2.1-1.053 2.105 1.053A2 2 0 0 0 19 58v-2h24a3 3 0 0 0 3-3v-3h12a2 2 0 0 0 2-2V38a2 2 0 0 0-2-2H46v-2h12a2 2 0 0 0 2-2V22a2 2 0 0 0-2-2H46v-2h12a2 2 0 0 0 2-2V6a2 2 0 0 0-2-2H46V3a3 3 0 0 0-3-3H7a7.008 7.008 0 0 0-7 7zm2 0a5 5 0 0 1 3-4.576v39.865a6.834 6.834 0 0 0-3 1.821zm12.9 49.946a2.012 2.012 0 0 0-1.79 0L11 58v-8h6v8zM19 50h4a1 1 0 0 0 0-2H6a1 1 0 0 0 0 2h3v4H7a5 5 0 0 1 0-10h32.23a10.78 10.78 0 0 0 0 10H19zm26.816-8H58v2H43a3 3 0 0 0 2.816-2zM44 53a1 1 0 0 1-1 1h-1.461a9.458 9.458 0 0 1-1.481-4H44zm-3.942-5a8.774 8.774 0 0 1 .481-2H58v2zM58 38v2H46v-2zm0-16v10H46V22zm-8-6V6h3v10zm8 0h-3V6h3zM48 6v10h-2V6zm-4-3v38a1 1 0 0 1-1 1H7V2h36a1 1 0 0 1 1 1z" fill="#000000" opacity="1" data-original="#000000" class=""></path><path d="M52 30a3 3 0 1 0 0-6 3 3 0 0 0 0 6zm0-4a1 1 0 1 1 0 2 1 1 0 0 1 0-2zM17.654 30.675c.02.014.04.027.062.038 6.473 4.13 15.044 2.49 19.535-3.737 4.492-6.227 3.344-14.878-2.617-19.717C28.673 2.419 19.97 3.073 14.8 8.748a.959.959 0 0 0-.136.149 14.448 14.448 0 0 0 2.99 21.778zm-4.4-14.7a4.826 4.826 0 0 0 2.078 1.67c1.63.676 3.625.469 3.537 1.551a7.905 7.905 0 0 1-.627 2.163c-.914 2.337-.863 3.046-.587 4.634.21.738.223 1.518.041 2.263a12.472 12.472 0 0 1-4.438-12.285zm11.1 14.971a9.858 9.858 0 0 1 6.111-.976 12.34 12.34 0 0 1-6.11.972zm8.687-2.5a14.673 14.673 0 0 0-7.222-.228 10.408 10.408 0 0 0-4.142 2.18 12.447 12.447 0 0 1-2.2-.952 6.973 6.973 0 0 0 .156-3.8c-.22-1.275-.287-1.609.479-3.564.386-.866.64-1.784.756-2.724a2.637 2.637 0 0 0-1.641-2.7c-2.074-.908-4.2-.127-5.044-3.423a12.508 12.508 0 0 1 1.733-2.74 25.329 25.329 0 0 0 5.892-.726A7.755 7.755 0 0 0 26.974 6.1c.95.114 1.884.338 2.782.667A11.467 11.467 0 0 1 26.9 8.483a5.252 5.252 0 0 0-3.1 3.524c-.425 2.378 1.64 3.964 3.737 4.431 5.177 1.149 1.3 5.258 1.242 8.011A2.85 2.85 0 0 0 31.8 27.4a6.715 6.715 0 0 0 3.742-1.488 12.59 12.59 0 0 1-2.5 2.533zM18.217 8.361a12.4 12.4 0 0 1 6.323-2.312c-1.527 1.631-3.931 2.063-6.323 2.312zm18.959 14.563c-2.556.769-3.468 2.245-5.135 2.459a1.3 1.3 0 0 1-1.027-.236c-.975-.876 1.213-3.466 1.213-6.2-.007-2.236-1.56-3.862-4.259-4.461-.1-.022-2.481-.571-2.2-2.125a3.321 3.321 0 0 1 1.96-2.057 12.18 12.18 0 0 0 3.987-2.636 12.449 12.449 0 0 1 5.461 15.256zM34 35H17a1 1 0 0 0 0 2h17a1 1 0 0 0 0-2z" fill="#000000" opacity="1" data-original="#000000" class=""></path></g></g></g></svg>