<svg xmlns="http://www.w3.org/2000/svg" version="1.1" xmlns:xlink="http://www.w3.org/1999/xlink" width="512" height="512" x="0" y="0" viewBox="0 0 496 496" style="enable-background:new 0 0 512 512" xml:space="preserve" class=""><g><path fill="#fcd770" d="M472 200H344c-8.8 0-16 7.2-16 16v208c0 8.8 7.2 16 16 16h128c8.8 0 16-7.2 16-16V216c0-8.8-7.2-16-16-16zm0 0" opacity="1" data-original="#fcd770"></path><path fill="#e6e9ed" d="M24 40v191.121L75.762 280H328v-64c0-8.8 7.2-16 16-16h48V40zm0 0" opacity="1" data-original="#e6e9ed"></path><path fill="#69d6f4" d="M360 232h96v48h-96zm0 0" opacity="1" data-original="#69d6f4"></path><path fill="#b4dd7f" d="M440 104v32H248v-32zm0 0" opacity="1" data-original="#b4dd7f"></path><path fill="#ff826e" d="M440 72v32H248V72zm0 0" opacity="1" data-original="#ff826e"></path><path fill="#f5e0cd" d="M248 104v32l-48-32 48-32zm0 0" opacity="1" data-original="#f5e0cd"></path><path fill="#ffeaa7" d="M488 96v16c0 13.281-10.719 24-24 24h-24V72h24c13.281 0 24 10.719 24 24zM8 456V216l16 15.121L75.762 280 296 488H8zm48-128.64V440h119.281zm0 0" opacity="1" data-original="#ffeaa7"></path><path fill="#838f9b" d="M408 16v16c0 4.398-3.602 8-8 8H16c-4.398 0-8-3.602-8-8V16c0-4.398 3.602-8 8-8h384c4.398 0 8 3.602 8 8zm0 0" opacity="1" data-original="#838f9b"></path><path d="M464 144c17.648 0 32-14.352 32-32V96c0-17.648-14.352-32-32-32h-64V48c8.824 0 16-7.176 16-16V16c0-8.824-7.176-16-16-16H16C7.176 0 0 7.176 0 16v16c0 8.824 7.176 16 16 16v164.55L0 197.442V496h316.121L95.887 288H320v136c0 13.23 10.77 24 24 24h128c13.23 0 24-10.77 24-24V216c0-13.23-10.77-24-24-24h-72v-48zm-32-48H256V80h176zm-192 25.055L214.426 104 240 86.945zM256 112h176v16H256zm224-16v16c0 8.824-7.176 16-16 16h-16V80h16c8.824 0 16 7.176 16 16zM16 16h384l.008 16H16zm0 464v-16h16v-16H16v-16h16v-16H16v-16h16v-16H16v-16h16v-16H16v-16h16v-16H16v-16h16v-16H16v-53.441L275.879 480zm464-264v208c0 4.414-3.594 8-8 8H344c-4.406 0-8-3.586-8-8V216c0-4.414 3.594-8 8-8h128c4.406 0 8 3.586 8 8zm-96-24H248v16h73.473c-.899 2.512-1.473 5.184-1.473 8v8h-72v16h72v32H78.945L32 227.664V48h352v16H245.574l-60 40 60 40H384zm0 0" fill="#000000" opacity="1" data-original="#000000"></path><path d="M168 96h-55L98.543 204.375 75.84 176H48v16h20.16l41.297 51.625L127 112h41zm0 0" fill="#000000" opacity="1" data-original="#000000"></path><path d="M218.344 138.344 184 172.688l-34.344-34.344-11.312 11.312L172.688 184l-34.344 34.344 11.312 11.312L184 195.312l34.344 34.344 11.312-11.312L195.312 184l34.344-34.344zM248 160h120v16H248zM48 308.8V448h147.383zm16 37.122L155.145 432H64zM464 224H352v64h112zm-16 48h-80v-32h80zM416 320h48v16h-48zM352 368h48v16h-48zM352 400h48v16h-48zM368 352h16v-16h16v-16h-16v-16h-16v16h-16v16h16zM450.344 370.344 440 380.688l-10.344-10.344-11.312 11.312L428.688 392l-10.344 10.344 11.312 11.312L440 403.312l10.344 10.344 11.312-11.312L451.312 392l10.344-10.344zm0 0" fill="#000000" opacity="1" data-original="#000000"></path></g></svg>