	<svg xmlns="http://www.w3.org/2000/svg" version="1.1" xmlns:xlink="http://www.w3.org/1999/xlink" width="512" height="512" x="0" y="0" viewBox="0 0 682.667 682.667" style="enable-background:new 0 0 512 512" xml:space="preserve" class=""><g><defs><clipPath id="a" clipPathUnits="userSpaceOnUse"><path d="M0 512h512V0H0Z" fill="#000000" opacity="1" data-original="#000000"></path></clipPath></defs><g clip-path="url(#a)" transform="matrix(1.33333 0 0 -1.33333 0 682.667)"><path d="M0 0a2.151 2.151 0 0 0-1.407 1.974l-.011.547v31.547l5.969 25.245c1.144 4.841-2.528 9.482-7.502 9.482h-93.818c-4.974 0-8.646-4.641-7.502-9.482l5.969-25.245V2.521c0-.91-.574-1.716-1.43-2.025-55.926-20.187-95.869-73.808-95.676-136.74.245-79.928 64.932-144.408 144.862-144.407 80.004.001 144.859 64.857 144.859 144.861C94.313-73.566 55.078-20.511 0 0" style="fill-opacity:1;fill-rule:nonzero;stroke:none" transform="translate(410.565 284.616)" fill="#c7f0fe" data-original="#c7f0fe"></path><path d="M0 0c-.18 59.007 34.924 109.828 85.405 132.579 7.079 3.19 11.701 10.15 11.701 17.914v13.69a52.5 52.5 0 0 1-1.41 12.093l-.25 1.058c-3.343 14.144 7.385 27.705 21.918 27.705h52.041l2.541 10.748c1.145 4.841-2.527 9.483-7.502 9.483H70.627c-4.975 0-8.647-4.642-7.502-9.483l5.969-25.245v-31.546c0-.911-.574-1.716-1.431-2.026-55.926-20.187-95.868-73.807-95.676-136.739.167-54.449 30.243-101.719 74.667-126.33C18.065-79.744.129-42.009 0 0" style="fill-opacity:1;fill-rule:nonzero;stroke:none" transform="translate(243.17 128.142)" fill="#9ae6fb" data-original="#9ae6fb"></path><path d="m0 0 23.641 11.701a98.724 98.724 0 0 0 84.333 1.536 98.695 98.695 0 0 1 45.993-8.557l7.653.983c3.621.465 6.906-2.183 7.21-5.821.261-3.119.393-6.265.393-9.433 0-59.777-46.336-108.933-104.977-113.441h-90.771V-2.053Z" style="fill-opacity:1;fill-rule:nonzero;stroke:none" transform="translate(305.262 161.323)" fill="#6cf5c2" data-original="#6cf5c2" class=""></path><path d="M0 0c1.73 12.62-1.063 25.548-8.317 36.84l-58.153 90.553-13.527-6.695-26.525-2.053V-2.334h90.771C-10.389-1.922-5.131-1.133 0 0" style="fill-opacity:1;fill-rule:nonzero;stroke:none" transform="translate(385.259 40.626)" fill="#00f2a6" data-original="#00f2a6"></path><path d="M0 0c10.654 19.507 9.844 42.317-2.167 61.014l-114.962 179.014c-31.329-26.659-51.166-66.416-51.03-110.808.245-79.929 64.932-144.409 144.862-144.408 4.09 0 8.137.179 12.141.511C-6.807-10.481-3.037-5.562 0 0" style="fill-opacity:1;fill-rule:nonzero;stroke:none" transform="translate(383.316 19.153)" fill="#9ae6fb" data-original="#9ae6fb"></path><path d="M0 0c1.359 13.152-1.764 26.519-9.308 38.264l-57.851 90.083-18.036-8.927-26.526-2.053V-3.612h90.772C-13.76-3.06-6.758-1.832 0 0" style="fill-opacity:1;fill-rule:nonzero;stroke:none" transform="translate(390.457 41.903)" fill="#05e29c" data-original="#05e29c"></path><path d="M0 0c17.029-26.51-2.011-61.36-33.511-61.36H-316.84c-31.5 0-50.54 34.85-33.511 61.36l117.064 182.286a20.798 20.798 0 0 1 3.297 11.235V296.02h109.63V193.521a20.79 20.79 0 0 1 3.297-11.235z" style="fill-opacity:1;fill-rule:nonzero;stroke:none" transform="translate(364.32 69.36)" fill="#dff6fe" data-original="#dff6fe"></path><path d="M0 0v6.564h-72.047v-94.647a20.79 20.79 0 0 0-3.297-11.235l-117.063-182.286c-17.03-26.51 2.011-61.36 33.511-61.36h48.056c-15.58 11.845-21.517 34.667-9.511 53.359L-3.287-107.319A20.793 20.793 0 0 1 .01-96.084V0Z" style="fill-opacity:1;fill-rule:nonzero;stroke:none" transform="translate(206.377 350.964)" fill="#c7f0fe" data-original="#c7f0fe"></path><path d="M0 0c2.74-4.27 1.4-8.12.36-10.03-1.05-1.91-3.56-5.12-8.631-5.12H-291.6c-5.07 0-7.58 3.21-8.63 5.12-1.041 1.91-2.38 5.76.36 10.03l88.254 137.407a11.057 11.057 0 0 0 9.33 5.066 118.42 118.42 0 0 0 36.486-5.793v-.01a118.59 118.59 0 0 1 69.35-1.211c4.713 1.353 9.757-.475 12.406-4.6z" style="fill-opacity:1;fill-rule:nonzero;stroke:none" transform="translate(339.08 53.15)" fill="#fe9a9f" data-original="#fe9a9f"></path><path d="M0 0c2.74-4.27 1.4-8.12.36-10.03-1.05-1.91-3.56-5.12-8.631-5.12H-291.6c-5.07 0-7.58 3.21-8.63 5.12-1.041 1.91-2.38 5.76.36 10.03l88.254 137.407a11.057 11.057 0 0 0 9.33 5.066 118.42 118.42 0 0 0 36.486-5.793v-.01a118.59 118.59 0 0 1 69.35-1.211c4.713 1.353 9.757-.475 12.406-4.6z" style="fill-opacity:1;fill-rule:nonzero;stroke:none" transform="translate(339.08 53.15)" fill="#fe9a9f" data-original="#fe9a9f"></path><path d="m0 0 83.278 129.678a118.531 118.531 0 0 1-32.51 4.587 11.059 11.059 0 0 1-9.33-5.067L-46.816-8.208c-2.741-4.271-1.4-8.12-.361-10.03 1.051-1.91 3.561-5.12 8.631-5.12h32.223C-6.712-15.554-4.785-7.449 0 0" style="fill-opacity:1;fill-rule:nonzero;stroke:none" transform="translate(86.026 61.358)" fill="#fd8087" data-original="#fd8087" class=""></path><path d="M0 0c2.74-4.27 1.4-8.12.36-10.03-1.05-1.91-3.56-5.12-8.631-5.12H-291.6c-5.07 0-7.58 3.21-8.63 5.12-1.041 1.91-2.38 5.76.36 10.03l25.94 40.38 44.119 10.46a118.54 118.54 0 0 0 64.011-2.62c11.95-3.88 24.33-5.81 36.68-5.81 16.88 0 33.7 3.59 49.3 10.73l34.49 15.77.76.49z" style="fill-opacity:1;fill-rule:nonzero;stroke:none" transform="translate(339.08 53.15)" fill="#fd8087" data-original="#fd8087" class=""></path><path d="m0 0 28.033 43.651c-1.6-.31-3.198-.642-4.79-1.019l-44.119-10.46-25.94-40.38c-2.741-4.271-1.4-8.12-.361-10.03 1.051-1.91 3.561-5.12 8.631-5.12h32.223C-6.712-15.554-4.785-7.449 0 0" style="fill-opacity:1;fill-rule:nonzero;stroke:none" transform="translate(86.026 61.358)" fill="#fe646e" data-original="#fe646e"></path><path d="M0 0h-105.209c-7.87 0-14.25 6.38-14.25 14.25s6.38 14.25 14.25 14.25H0c7.87 0 14.25-6.38 14.25-14.25S7.87 0 0 0" style="fill-opacity:1;fill-rule:nonzero;stroke:none" transform="translate(241.75 351.385)" fill="#9ae6fb" data-original="#9ae6fb"></path><path d="M0 0c0-12.022-9.746-21.769-21.769-21.769-12.022 0-21.768 9.747-21.768 21.769 0 12.022 9.746 21.769 21.768 21.769C-9.746 21.769 0 12.022 0 0" style="fill-opacity:1;fill-rule:nonzero;stroke:none" transform="translate(422.563 116.814)" fill="#05e29c" data-original="#05e29c"></path><path d="M0 0c0-9.018-7.31-16.328-16.328-16.328S-32.656-9.018-32.656 0s7.31 16.328 16.328 16.328S0 9.018 0 0" style="fill-opacity:1;fill-rule:nonzero;stroke:none" transform="translate(176.998 147.87)" fill="#fd8087" data-original="#fd8087" class=""></path><path d="M0 0c0-13.154-10.663-23.818-23.817-23.818-13.156 0-23.819 10.664-23.819 23.818 0 13.155 10.663 23.818 23.819 23.818C-10.663 23.818 0 13.155 0 0" style="fill-opacity:1;fill-rule:nonzero;stroke:none" transform="translate(212.964 436.93)" fill="#fe9a9f" data-original="#fe9a9f"></path><path d="M0 0c0-13.155-10.664-23.818-23.818-23.818-13.155 0-23.818 10.663-23.818 23.818 0 13.154 10.663 23.818 23.818 23.818C-10.664 23.818 0 13.154 0 0" style="fill-opacity:1;fill-rule:nonzero;stroke:none" transform="translate(384.735 414.125)" fill="#9cf8d3" data-original="#9cf8d3"></path><path d="M0 0c0-8.918-7.229-16.147-16.147-16.147-8.917 0-16.147 7.229-16.147 16.147 0 8.917 7.23 16.146 16.147 16.146C-7.229 16.146 0 8.917 0 0" style="fill-opacity:1;fill-rule:nonzero;stroke:none" transform="translate(144.72 487.796)" fill="#fe9a9f" data-original="#fe9a9f"></path><path d="M0 0v-29.417l-120.366-187.418c-17.027-26.51 2.009-61.358 33.515-61.358h283.325c31.506 0 50.542 34.848 33.516 61.358L154.424-99.174" style="stroke-width:15;stroke-linecap:round;stroke-linejoin:round;stroke-miterlimit:10;stroke-dasharray:none;stroke-opacity:1" transform="translate(134.334 286.194)" fill="none" stroke="#000000" stroke-width="15" stroke-linecap="round" stroke-linejoin="round" stroke-miterlimit="10" stroke-dasharray="none" stroke-opacity="" data-original="#000000" class=""></path><path d="m0 0-27.528 42.863v94.608h-109.624v-33.229" style="stroke-width:15;stroke-linecap:round;stroke-linejoin:round;stroke-miterlimit:10;stroke-dasharray:none;stroke-opacity:1" transform="translate(271.486 213.914)" fill="none" stroke="#000000" stroke-width="15" stroke-linecap="round" stroke-linejoin="round" stroke-miterlimit="10" stroke-dasharray="none" stroke-opacity="" data-original="#000000" class=""></path><path d="m0 0-88.629 138a118.556 118.556 0 0 0-77.168-1.322h-.001a118.55 118.55 0 0 1-42.668 5.649L-299.872 0c-2.742-4.271-1.399-8.115-.356-10.027 1.044-1.912 3.554-5.119 8.629-5.119H-8.274c5.075 0 7.586 3.208 8.629 5.119C1.399-8.115 2.742-4.27 0 0Z" style="stroke-width:15;stroke-linecap:round;stroke-linejoin:round;stroke-miterlimit:10;stroke-dasharray:none;stroke-opacity:1" transform="translate(339.082 53.147)" fill="none" stroke="#000000" stroke-width="15" stroke-linecap="round" stroke-linejoin="round" stroke-miterlimit="10" stroke-dasharray="none" stroke-opacity="" data-original="#000000" class=""></path><path d="m0 0 44.119 10.457a118.55 118.55 0 0 0 64.019-2.619 118.556 118.556 0 0 1 85.978 4.923l34.491 15.771" style="stroke-width:15;stroke-linecap:round;stroke-linejoin:round;stroke-miterlimit:10;stroke-dasharray:none;stroke-opacity:1" transform="translate(65.147 93.532)" fill="none" stroke="#000000" stroke-width="15" stroke-linecap="round" stroke-linejoin="round" stroke-miterlimit="10" stroke-dasharray="none" stroke-opacity="" data-original="#000000" class=""></path><path d="M0 0a145.034 145.034 0 0 1 19.703-1.35c79.408 0 143.779 64.372 143.779 143.779 0 62.408-39.764 115.522-95.336 135.405v31.547l5.968 25.245c1.145 4.841-2.527 9.482-7.501 9.482h-93.818c-4.975 0-8.647-4.641-7.502-9.482l5.969-25.245v-31.547c-23.813-8.52-44.718-23.145-60.84-41.984" style="stroke-width:15;stroke-linecap:round;stroke-linejoin:round;stroke-miterlimit:10;stroke-dasharray:none;stroke-opacity:1" transform="translate(341.002 9.303)" fill="none" stroke="#000000" stroke-width="15" stroke-linecap="round" stroke-linejoin="round" stroke-miterlimit="10" stroke-dasharray="none" stroke-opacity="" data-original="#000000" class=""></path><path d="M0 0h-105.209c-7.87 0-14.25 6.38-14.25 14.25s6.38 14.25 14.25 14.25H0c7.87 0 14.25-6.38 14.25-14.25S7.87 0 0 0Z" style="stroke-width:15;stroke-linecap:round;stroke-linejoin:round;stroke-miterlimit:10;stroke-dasharray:none;stroke-opacity:1" transform="translate(241.75 351.385)" fill="none" stroke="#000000" stroke-width="15" stroke-linecap="round" stroke-linejoin="round" stroke-miterlimit="10" stroke-dasharray="none" stroke-opacity="" data-original="#000000" class=""></path><path d="M0 0c20.064 1.542 38.687 8.314 54.507 18.948" style="stroke-width:15;stroke-linecap:round;stroke-linejoin:round;stroke-miterlimit:10;stroke-dasharray:none;stroke-opacity:1" transform="translate(369.508 38.291)" fill="none" stroke="#000000" stroke-width="15" stroke-linecap="round" stroke-linejoin="round" stroke-miterlimit="10" stroke-dasharray="none" stroke-opacity="" data-original="#000000" class=""></path><path d="M0 0c16.469 19.74 26.393 45.119 26.393 72.776 0 3.168-.133 6.314-.393 9.433-.304 3.638-3.589 6.286-7.21 5.821l-7.653-.983a98.72 98.72 0 0 0-45.993 8.557h-.001a98.722 98.722 0 0 1-84.332-1.536l-23.641-11.701" style="stroke-width:15;stroke-linecap:round;stroke-linejoin:round;stroke-miterlimit:10;stroke-dasharray:none;stroke-opacity:1" transform="translate(448.092 78.956)" fill="none" stroke="#000000" stroke-width="15" stroke-linecap="round" stroke-linejoin="round" stroke-miterlimit="10" stroke-dasharray="none" stroke-opacity="" data-original="#000000" class=""></path><path d="M0 0c0-12.022-9.746-21.769-21.769-21.769-12.022 0-21.768 9.747-21.768 21.769 0 12.022 9.746 21.769 21.768 21.769C-9.746 21.769 0 12.022 0 0Z" style="stroke-width:15;stroke-linecap:round;stroke-linejoin:round;stroke-miterlimit:10;stroke-dasharray:none;stroke-opacity:1" transform="translate(422.563 116.814)" fill="none" stroke="#000000" stroke-width="15" stroke-linecap="round" stroke-linejoin="round" stroke-miterlimit="10" stroke-dasharray="none" stroke-opacity="" data-original="#000000" class=""></path><path d="M0 0c0-9.018-7.31-16.328-16.328-16.328S-32.656-9.018-32.656 0s7.31 16.328 16.328 16.328S0 9.018 0 0Z" style="stroke-width:15;stroke-linecap:round;stroke-linejoin:round;stroke-miterlimit:10;stroke-dasharray:none;stroke-opacity:1" transform="translate(176.998 147.87)" fill="none" stroke="#000000" stroke-width="15" stroke-linecap="round" stroke-linejoin="round" stroke-miterlimit="10" stroke-dasharray="none" stroke-opacity="" data-original="#000000" class=""></path><path d="M0 0c0-13.154-10.663-23.818-23.817-23.818-13.156 0-23.819 10.664-23.819 23.818 0 13.155 10.663 23.818 23.819 23.818C-10.663 23.818 0 13.155 0 0Z" style="stroke-width:15;stroke-linecap:round;stroke-linejoin:round;stroke-miterlimit:10;stroke-dasharray:none;stroke-opacity:1" transform="translate(212.964 436.93)" fill="none" stroke="#000000" stroke-width="15" stroke-linecap="round" stroke-linejoin="round" stroke-miterlimit="10" stroke-dasharray="none" stroke-opacity="" data-original="#000000" class=""></path><path d="M0 0c0-13.155-10.664-23.818-23.818-23.818-13.155 0-23.818 10.663-23.818 23.818 0 13.154 10.663 23.818 23.818 23.818C-10.664 23.818 0 13.154 0 0Z" style="stroke-width:15;stroke-linecap:round;stroke-linejoin:round;stroke-miterlimit:10;stroke-dasharray:none;stroke-opacity:1" transform="translate(384.735 414.125)" fill="none" stroke="#000000" stroke-width="15" stroke-linecap="round" stroke-linejoin="round" stroke-miterlimit="10" stroke-dasharray="none" stroke-opacity="" data-original="#000000" class=""></path><path d="M0 0c0-8.918-7.229-16.147-16.147-16.147-8.917 0-16.147 7.229-16.147 16.147 0 8.917 7.23 16.146 16.147 16.146C-7.229 16.146 0 8.917 0 0Z" style="stroke-width:15;stroke-linecap:round;stroke-linejoin:round;stroke-miterlimit:10;stroke-dasharray:none;stroke-opacity:1" transform="translate(144.72 487.796)" fill="none" stroke="#000000" stroke-width="15" stroke-linecap="round" stroke-linejoin="round" stroke-miterlimit="10" stroke-dasharray="none" stroke-opacity="" data-original="#000000" class=""></path></g></g></svg>