<svg xmlns="http://www.w3.org/2000/svg" version="1.1" xmlns:xlink="http://www.w3.org/1999/xlink" width="512" height="512" x="0" y="0" viewBox="0 0 64 64" style="enable-background:new 0 0 512 512" xml:space="preserve" class=""><g><g data-name="Fill Outline"><path fill="#93999a" d="M35 40v-6h-3.362a12.883 12.883 0 0 0-1.582-3.813l2.379-2.379-4.243-4.243-2.379 2.379A12.883 12.883 0 0 0 22 24.362V21h-6v3.362a12.883 12.883 0 0 0-3.813 1.582l-2.379-2.379-4.243 4.243 2.379 2.379A12.883 12.883 0 0 0 6.362 34H3v6h3.362a12.883 12.883 0 0 0 1.582 3.813l-2.379 2.379 4.243 4.243 2.378-2.379A12.9 12.9 0 0 0 16 49.638V53h6v-3.362a12.9 12.9 0 0 0 3.814-1.582l2.378 2.379 4.243-4.243-2.379-2.379A12.883 12.883 0 0 0 31.638 40zm-16 4a7 7 0 1 1 7-7 7 7 0 0 1-7 7z" opacity="1" data-original="#93999a"></path><path fill="#656b76" d="M35 40v-6h-3.36a13.223 13.223 0 0 0-1.58-3.81l2.38-2.38-4.25-4.25-2.38 2.38A13.223 13.223 0 0 0 22 24.36V21h-6v3.36a12.589 12.589 0 0 0-2.5.89v7.43a7 7 0 1 1-1.44 5.2 15.906 15.906 0 0 1-5.37-5.01A11.22 11.22 0 0 0 6.36 34H3v6h3.36a13.223 13.223 0 0 0 1.58 3.81l-2.38 2.38 4.25 4.24 2.38-2.37A13.223 13.223 0 0 0 16 49.64V53h6v-3.36a13.223 13.223 0 0 0 3.81-1.58l2.38 2.37 4.25-4.24-2.38-2.38A13.223 13.223 0 0 0 31.64 40z" opacity="1" data-original="#656b76"></path><path fill="#e9f1f2" d="M60 31V21h-4.719a17.9 17.9 0 0 0-1.52-3.69l3.331-3.331-7.071-7.071-3.331 3.331A17.918 17.918 0 0 0 43 8.719V4H33v4.719a17.918 17.918 0 0 0-3.69 1.52l-3.331-3.331-7.071 7.071 3.331 3.331a17.9 17.9 0 0 0-1.52 3.69H16v10h4.719a17.918 17.918 0 0 0 1.52 3.69l-3.331 3.331 7.071 7.071 3.331-3.331a17.918 17.918 0 0 0 3.69 1.52V48h10v-4.719a17.918 17.918 0 0 0 3.69-1.52l3.331 3.331 7.071-7.071-3.331-3.331a17.918 17.918 0 0 0 1.52-3.69zm-11.8-.87a10.958 10.958 0 0 1-7.59 6.55A10.723 10.723 0 0 1 38 37a10.994 10.994 0 0 1-11-11 11.233 11.233 0 0 1 .31-2.61 11.007 11.007 0 0 1 6.57-7.59A10.84 10.84 0 0 1 38 15a11.01 11.01 0 0 1 10.2 15.13z" opacity="1" data-original="#e9f1f2"></path><path fill="#d0d8da" d="M60 31v-4.17a25.9 25.9 0 0 1-11.55-4.28 10.991 10.991 0 0 1-7.84 14.13A10.723 10.723 0 0 1 38 37a10.994 10.994 0 0 1-11-11 11.233 11.233 0 0 1 .31-2.61 11.007 11.007 0 0 1 6.57-7.59 11.048 11.048 0 0 1 7.57-.25A25.9 25.9 0 0 1 37.17 4H33v4.72a17.579 17.579 0 0 0-3.69 1.52l-3.33-3.33-7.07 7.07 3.33 3.33A17.579 17.579 0 0 0 20.72 21H16v10h4.72a17.579 17.579 0 0 0 1.52 3.69l-3.33 3.33 7.07 7.07 3.33-3.33A17.579 17.579 0 0 0 33 43.28V48h10v-4.72a17.579 17.579 0 0 0 3.69-1.52l3.33 3.33 7.07-7.07-3.33-3.33A17.579 17.579 0 0 0 55.28 31z" opacity="1" data-original="#d0d8da"></path><path fill="#fcbc04" d="M48.2 30.13a10.958 10.958 0 0 1-7.59 6.55l-13.3-13.29-2.95-2.95 7.08-7.08 2.44 2.44z" opacity="1" data-original="#fcbc04"></path><path fill="#e59730" d="M48.2 30.13a10.958 10.958 0 0 1-7.59 6.55l-13.3-13.29-2.95-2.95 7.08-7.08 3.36 3.36a5.826 5.826 0 0 1-1.66 3.18l-1.66 1.66 9.13 9.12a10.843 10.843 0 0 0 5.2-2.94z" opacity="1" data-original="#e59730"></path><path fill="#f9e109" d="m22.243 4.172-1.415 1.414 5.657 5.657a2 2 0 0 1 0 2.828l-1.414 1.414a2 2 0 0 1-2.828 0l-5.657-5.657-1.414 1.415a4 4 0 0 0 0 5.657l4.242 4.242a6 6 0 0 0 8.486 0l4.242-4.242a6 6 0 0 0 0-8.486L27.9 4.172a4 4 0 0 0-5.657 0z" opacity="1" data-original="#f9e109"></path><path fill="#fcbc04" d="m32.14 16.9-4.24 4.24a5.993 5.993 0 0 1-8.49 0l-4.24-4.24a3.993 3.993 0 0 1-.63-4.83 3.57 3.57 0 0 0 .63.83l4.24 4.24a5.993 5.993 0 0 0 8.49 0l4.24-4.24a5.742 5.742 0 0 0 1.41-2.24 5.956 5.956 0 0 1-1.41 6.24z" opacity="1" data-original="#fcbc04"></path><path fill="#f8664f" d="m54 45-3-8H27l-4 8-12.419 2.661A2 2 0 0 0 9 49.617V56h52v-8z" opacity="1" data-original="#f8664f"></path><path fill="#cc5144" d="M61 52v4H9v-6.38a2 2 0 0 1 1.58-1.96L23 45s2 7 12 7h7.81a6 6 0 0 1 7.77-2.42A22.371 22.371 0 0 0 60.24 52z" opacity="1" data-original="#cc5144"></path><circle cx="24" cy="55" r="6" fill="#464a51" opacity="1" data-original="#464a51"></circle><circle cx="24" cy="55" r="4" fill="#656b76" opacity="1" data-original="#656b76"></circle><circle cx="24" cy="55" r="2" fill="#e9f1f2" opacity="1" data-original="#e9f1f2"></circle><circle cx="50" cy="55" r="6" fill="#464a51" opacity="1" data-original="#464a51"></circle><circle cx="50" cy="55" r="4" fill="#656b76" opacity="1" data-original="#656b76"></circle><circle cx="50" cy="55" r="2" fill="#e9f1f2" opacity="1" data-original="#e9f1f2"></circle><path fill="#f9e109" d="M13 47.14V50a2.006 2.006 0 0 1-2 2H9v-2.384a2 2 0 0 1 1.58-1.956z" opacity="1" data-original="#f9e109"></path><path fill="#84d2f4" d="m27 37-4 8h16v-8zM51 37H39v8h15z" opacity="1" data-original="#84d2f4"></path><path fill="#57b7eb" d="m27 37-4 8h16zM39 37v8h15z" opacity="1" data-original="#57b7eb"></path><path fill="#fcbc04" d="M12.74 50.98A2 2 0 0 1 11 52H9v-2.38a1.984 1.984 0 0 1 1-1.73V48a2.979 2.979 0 0 0 2.74 2.98z" opacity="1" data-original="#fcbc04"></path><g fill="#d0d8da"><path d="M25.82 55.82a2 2 0 1 1-2.64-2.64A1.891 1.891 0 0 0 23 54a2.006 2.006 0 0 0 2 2 1.891 1.891 0 0 0 .82-.18zM51.82 55.82a2 2 0 1 1-2.64-2.64A1.891 1.891 0 0 0 49 54a2.006 2.006 0 0 0 2 2 1.891 1.891 0 0 0 .82-.18z" fill="#d0d8da" opacity="1" data-original="#d0d8da"></path></g><g fill="#323232" data-name="Outline copy"><path d="M33 5h9v3.719a1 1 0 0 0 .723.961 16.93 16.93 0 0 1 3.483 1.434 1 1 0 0 0 1.19-.168l2.625-2.624 5.657 5.657-2.624 2.621a1 1 0 0 0-.168 1.19 16.93 16.93 0 0 1 1.434 3.483 1 1 0 0 0 .961.723H60a1 1 0 0 0 0-2h-3.981a19.028 19.028 0 0 0-1.031-2.5l2.811-2.81a1 1 0 0 0 0-1.415L50.728 6.2a1 1 0 0 0-1.415 0L46.5 9.012A19.028 19.028 0 0 0 44 7.981V4a1 1 0 0 0-1-1H33a1 1 0 0 0 0 2zM41.293 31.707a1 1 0 0 0 1.414-1.414l-9.15-9.15a1 1 0 0 0-1.414 1.414zM27 55a3 3 0 1 0-3 3 3 3 0 0 0 3-3zm-4 0a1 1 0 1 1 1 1 1 1 0 0 1-1-1z" fill="#323232" opacity="1" data-original="#323232"></path><path d="m61.394 47.081-6.608-2.832-.686-1.825 3.7-3.7a1 1 0 0 0 0-1.415L54.988 34.5a19.028 19.028 0 0 0 1.031-2.5H60a1 1 0 0 0 1-1v-6a1 1 0 0 0-2 0v5h-3.719a1 1 0 0 0-.961.723 16.93 16.93 0 0 1-1.434 3.483 1 1 0 0 0 .168 1.19l2.624 2.625-2.347 2.346-1.394-3.719A1 1 0 0 0 51 36h-6.373a12 12 0 0 0-9.976-21.524 7 7 0 0 0-1.8-6.769l-4.245-4.242a5 5 0 0 0-7.071 0l-1.414 1.414a1 1 0 0 0 0 1.414L22 8.172a1 1 0 0 0 1.414-1.414l-1.172-1.172.707-.707a3.073 3.073 0 0 1 4.243 0l4.244 4.242a5.006 5.006 0 0 1 0 7.071l-4.244 4.244a5.006 5.006 0 0 1-7.071 0l-4.242-4.244a3 3 0 0 1 0-4.243l.707-.707 4.949 4.95a3 3 0 0 0 4.243 0l1.414-1.414a3 3 0 0 0 0-4.243l-.95-.949A1 1 0 1 0 24.828 11l.95.949a1 1 0 0 1 0 1.415l-1.414 1.414a1 1 0 0 1-1.415 0l-5.656-5.657a1 1 0 0 0-1.414 0l-1.414 1.414a5 5 0 0 0 0 7.071L16.858 20H16a1 1 0 0 0-1 1v2.625a14.245 14.245 0 0 0-2.644 1.067l-1.839-1.839a1 1 0 0 0-1.414 0L4.853 27.1a1 1 0 0 0 0 1.414l1.839 1.839A14.162 14.162 0 0 0 5.6 33H3a1 1 0 0 0-1 1v6a1 1 0 0 0 1 1h2.6a14.162 14.162 0 0 0 1.1 2.644l-1.847 1.839A1 1 0 1 0 6.267 46.9l2.38-2.38a1 1 0 0 0 .146-1.23 12.189 12.189 0 0 1-1.46-3.521A1 1 0 0 0 6.36 39H4v-4h2.36a1 1 0 0 0 .973-.766 12.189 12.189 0 0 1 1.46-3.521 1 1 0 0 0-.146-1.23L6.974 27.81l2.836-2.836 1.673 1.673a1 1 0 0 0 1.23.146A12.172 12.172 0 0 1 15 25.709V30.1a7.98 7.98 0 0 0-.126 13.759.987.987 0 0 0 .515.144 1 1 0 0 0 .516-1.856 6 6 0 0 1-.135-10.191A.931.931 0 0 0 16 32h3.981a19.028 19.028 0 0 0 1.031 2.5L18.2 37.313a1 1 0 0 0 0 1.415l4.545 4.544-.426.851-11.947 2.561A3.014 3.014 0 0 0 8 49.617V56a1 1 0 0 0 1 1h8.3a7 7 0 1 0 6.7-9 6.923 6.923 0 0 0-3.013.688 1 1 0 0 0 .864 1.8A4.951 4.951 0 0 1 24 50a5.015 5.015 0 1 1-4.508 2.849 1 1 0 0 0-1.8-.862A6.942 6.942 0 0 0 17 55h-7v-2h1a3 3 0 0 0 3-3v-2.049L23.105 46H53.8l6.2 2.659V49h-1a1 1 0 0 0 0 2h1v4h-3a7 7 0 0 0-14 0h-9.09a1 1 0 0 0 0 2h9.39a7 7 0 0 0 13.41 0H61a1 1 0 0 0 1-1v-8a1 1 0 0 0-.606-.919zM12 50a1 1 0 0 1-1 1h-1v-1.383a1 1 0 0 1 .791-.978L12 48.38zm40.557-6H24.618l3-6H38v3a1 1 0 0 0 2 0v-3h10.307zM48 26a10.076 10.076 0 0 1-.262 2.253L35.755 16.262A9.974 9.974 0 0 1 48 26zm-15.15-8.394a6.938 6.938 0 0 0 .654-.768L47 30.339a9.938 9.938 0 0 1-6.1 5.211L27.838 22.5a6.938 6.938 0 0 0 .768-.654zM20.322 38.021l2.624-2.621a1 1 0 0 0 .168-1.19 16.93 16.93 0 0 1-1.434-3.483 1 1 0 0 0-.961-.727H17v-8h1.874A6.962 6.962 0 0 0 26 23.489L38.486 35.97c-.162.008-.323.03-.486.03a10.034 10.034 0 0 1-9.625-7.271 1 1 0 0 0-1.924.542A11.975 11.975 0 0 0 31.392 36H27a1 1 0 0 0-.895.553l-2.417 4.834zM50 60a5 5 0 1 1 5-5 5.006 5.006 0 0 1-5 5z" fill="#323232" opacity="1" data-original="#323232"></path><path d="M50 52a3 3 0 1 0 3 3 3 3 0 0 0-3-3zm0 4a1 1 0 1 1 1-1 1 1 0 0 1-1 1zM37 50a1 1 0 0 0 0-2h-2a1 1 0 0 0 0 2z" fill="#323232" opacity="1" data-original="#323232"></path></g></g></g></svg>