<?xml version="1.0" encoding="UTF-8"?>
<svg version="1.1" xmlns="http://www.w3.org/2000/svg" width="500" height="500">
<path d="M0 0 C165 0 330 0 500 0 C500 165 500 330 500 500 C335 500 170 500 0 500 C0 335 0 170 0 0 Z " fill="#FEFEFE" transform="translate(0,0)"/>
<path d="M0 0 C1.51625473 -0.00525696 1.51625473 -0.00525696 3.06314087 -0.01062012 C6.38534532 -0.0193808 9.70733462 -0.0136078 13.02954102 -0.00683594 C15.35067282 -0.00818432 17.67180434 -0.01012629 19.99293518 -0.01263428 C24.85062354 -0.01557797 29.7082382 -0.01131253 34.56591797 -0.00195312 C40.77745916 0.0094345 46.98882737 0.0028814 53.20036221 -0.00909805 C57.99173779 -0.01634244 62.7830727 -0.01401676 67.57444954 -0.00884247 C69.86407555 -0.00751278 72.15370532 -0.00912973 74.44332695 -0.01380157 C77.64981671 -0.0189085 80.85603065 -0.01109781 84.0625 0 C84.9994017 -0.00404846 85.93630341 -0.00809692 86.90159607 -0.01226807 C101.14666069 0.07858056 113.18000235 4.38643723 123.59594727 14.25878906 C134.2508524 25.76359908 137.89099219 38.18985626 137.90234375 53.59521484 C137.91066727 54.57559219 137.91899078 55.55596954 137.92756653 56.5660553 C137.95148613 59.77877888 137.96041733 62.99129862 137.96704102 66.20410156 C137.97602233 68.46076512 137.98514441 70.71742813 137.99440002 72.97409058 C138.01084459 77.69628336 138.01858164 82.41840565 138.02148438 87.140625 C138.02685766 93.15210895 138.06451476 99.16291767 138.11022854 105.1742115 C138.14016906 109.83462869 138.14721164 114.49488675 138.14821053 119.15539169 C138.15238054 121.36948609 138.16468311 123.58358241 138.18572807 125.79758072 C138.34913498 144.47721308 136.78027465 160.54725433 123.27563477 174.68847656 C117.92703645 179.80234015 112.46432298 183.50036075 105.59594727 186.25878906 C104.77940674 186.60220337 103.96286621 186.94561768 103.12158203 187.29943848 C98.30186387 188.61091846 93.73813288 188.57007719 88.76391602 188.58105469 C87.14310371 188.5959494 87.14310371 188.5959494 85.48954773 188.61114502 C81.92082141 188.6403104 78.35227311 188.65398177 74.78344727 188.66503906 C72.29207356 188.67655175 69.80069986 188.68806709 67.30932617 188.69958496 C62.08405739 188.72058514 56.85884995 188.7322823 51.63354492 188.73925781 C44.96698383 188.74862951 38.30136247 188.79820311 31.63502502 188.85520172 C26.48571481 188.89262412 21.33659897 188.90287479 16.18716431 188.90592957 C13.73136924 188.91194941 11.27557624 188.92789332 8.81991577 188.95429993 C-9.17216044 189.13390478 -21.99337636 188.00718234 -36.00170898 175.66503906 C-48.67624939 162.96988965 -51.04284959 149.38231315 -51.07313538 132.17002869 C-51.06086646 129.82330725 -51.04744635 127.4765916 -51.03295898 125.12988281 C-51.03378906 122.68856195 -51.03625368 120.24724116 -51.04026794 117.80592346 C-51.04311512 112.70808947 -51.02852883 107.61069746 -51.00097656 102.51293945 C-50.96687847 96.00458139 -50.97292894 89.49701195 -50.99163914 82.98861599 C-51.00224655 77.9534507 -50.99323753 72.91846644 -50.97825432 67.88331795 C-50.97310077 65.4845337 -50.97351964 63.08573034 -50.97979927 60.68694878 C-51.01173422 41.16354076 -49.37032973 28.01022432 -35.77905273 13.07128906 C-25.66812468 3.3734534 -13.59395863 -0.05861445 0 0 Z " fill="#74BDD5" transform="translate(312.404052734375,49.7412109375)"/>
<path d="M0 0 C0.99100708 -0.0065712 1.98201416 -0.0131424 3.00305176 -0.01991272 C6.28019291 -0.03960666 9.55728819 -0.05130332 12.83447266 -0.0612793 C13.95855152 -0.06535482 15.08263039 -0.06943035 16.24077225 -0.07362938 C22.1972968 -0.09447935 28.15379843 -0.10878244 34.11035156 -0.11816406 C40.23069212 -0.12919079 46.35066535 -0.16355083 52.47087669 -0.20333576 C57.20330428 -0.22962582 61.93564624 -0.23786715 66.66814041 -0.24144554 C68.92213022 -0.24628413 71.17611691 -0.25781909 73.43003464 -0.27648354 C91.79372564 -0.41902803 107.9117801 0.32691162 122.33056641 13.13793945 C132.81397462 23.92201903 137.42855602 37.66171234 137.4140625 52.42578125 C137.42077972 53.420439 137.42749695 54.41509674 137.43441772 55.43989563 C137.45332978 58.71038893 137.45731875 61.9806762 137.45947266 65.2512207 C137.46590615 67.54035016 137.47263492 69.8294788 137.47964478 72.11860657 C137.49160121 76.91242375 137.49532736 81.70616897 137.49414062 86.5 C137.49393773 92.61487312 137.52121707 98.72927995 137.55568504 104.84404278 C137.5780264 109.57210877 137.58197592 114.30006391 137.58092117 119.02817726 C137.58326711 121.28102026 137.59203325 123.53386679 137.60758591 125.78665733 C137.74813959 148.25180313 137.74813959 148.25180313 133.12353516 159.17700195 C132.82305267 159.9386113 132.52257019 160.70022064 132.21298218 161.48490906 C127.28411897 173.40883182 116.03673609 181.2227024 104.63726807 186.24081421 C98.96210926 188.4783978 93.88575445 188.75632637 87.83740234 188.72631836 C86.7562767 188.73654022 85.67515106 188.74676208 84.56126404 188.7572937 C81.01408266 188.78492112 77.46768585 188.78318439 73.92041016 188.77856445 C71.43475053 188.78634844 68.94909354 188.79501985 66.46343994 188.80453491 C61.26199713 188.81942473 56.06082589 188.81890287 50.859375 188.80834961 C44.22426997 188.79677587 37.59028438 188.83059953 30.95536423 188.87703896 C25.8231771 188.90664015 20.6912555 188.90823981 15.55899811 188.9020195 C13.11439043 188.90303996 10.66976671 188.91340241 8.22524261 188.93364334 C-8.97120996 189.05855045 -22.10190419 188.13533897 -35.62646484 176.43481445 C-44.35737188 167.67359177 -50.94126084 156.2496639 -51.03036499 143.60743713 C-51.03896545 142.69516861 -51.04756592 141.78290009 -51.056427 140.84298706 C-51.06068695 139.84921051 -51.0649469 138.85543396 -51.06933594 137.83154297 C-51.07751343 136.77894791 -51.08569092 135.72635284 -51.09411621 134.64186096 C-51.11894528 131.15488243 -51.13548404 127.66794469 -51.14990234 124.1809082 C-51.15522602 122.98722059 -51.1605497 121.79353298 -51.1660347 120.56367302 C-51.19276126 114.2398836 -51.21213387 107.91611385 -51.2265625 101.59228516 C-51.2398763 96.37303036 -51.2676833 91.15416886 -51.30859375 85.93505859 C-51.35807873 79.62154003 -51.38270374 73.30837697 -51.38978958 66.99467278 C-51.39647702 64.5966701 -51.41163306 62.19867458 -51.43568039 59.80078316 C-51.58941901 43.53679967 -51.3283098 29.87126405 -39.87646484 17.17700195 C-39.26802734 16.48864258 -38.65958984 15.8002832 -38.03271484 15.09106445 C-27.67274465 4.03220738 -14.81262065 0.04278464 0 0 Z " fill="#74BDD4" transform="translate(101.87646484375,49.822998046875)"/>
<path d="M0 0 C1.04313354 -0.00671722 2.08626709 -0.01343445 3.16101074 -0.02035522 C6.60470366 -0.03932865 10.04820144 -0.04325971 13.49194336 -0.04541016 C15.8960325 -0.0518406 18.30012086 -0.05856915 20.70420837 -0.06558228 C25.74536959 -0.07755491 30.78646229 -0.08126331 35.82763672 -0.08007812 C42.26092301 -0.07987542 48.69376515 -0.10712815 55.12694645 -0.14162254 C60.09520957 -0.16395878 65.06336716 -0.16791353 70.03167534 -0.16685867 C72.40174318 -0.16920641 74.7718143 -0.17798283 77.14183235 -0.19352341 C95.23886621 -0.30103747 111.20207959 0.49805452 125.20678711 13.47802734 C139.45116319 28.86464113 140.14238513 45.78142744 140.08569336 65.62646484 C140.09094052 67.87741348 140.09722096 70.12835992 140.10447693 72.37930298 C140.11483453 77.07768156 140.11038704 81.77575641 140.09570312 86.47412109 C140.07853046 92.45417007 140.10201761 98.43325674 140.13719273 104.41319847 C140.15929871 109.05649008 140.15769329 113.69955615 140.14942741 118.34288406 C140.14861497 120.54579346 140.155341 122.74872061 140.17019844 124.95158005 C140.26525507 141.59352442 139.29572238 156.72132575 128.51928711 170.29052734 C127.94178711 171.15677734 127.36428711 172.02302734 126.76928711 172.91552734 C118.09267397 182.07417455 105.46247452 188.19227565 92.8036499 188.54449463 C91.04581492 188.55624774 89.28788566 188.55725188 87.5300293 188.54931641 C86.56302597 188.55282104 85.59602264 188.55632568 84.59971619 188.55993652 C81.42179048 188.5686957 78.24408985 188.56292334 75.06616211 188.55615234 C72.84189817 188.5575011 70.61763452 188.55944339 68.39337158 188.56195068 C63.73658434 188.56489446 59.07987398 188.56062991 54.4230957 188.55126953 C48.48088802 188.53990213 42.53886158 188.54642209 36.59666061 188.55841446 C32.00332296 188.56567593 27.41002754 188.56332506 22.81668854 188.55815887 C20.6272301 188.55683283 18.43776773 188.55843309 16.2483139 188.56311798 C-3.61641881 188.59628672 -20.13391212 188.14936559 -35.29321289 173.64599609 C-45.76679043 162.36819742 -48.61617488 150.7018672 -48.65771484 135.75634766 C-48.66428604 134.71960907 -48.67085724 133.68287048 -48.67762756 132.61471558 C-48.69726457 129.19936031 -48.70900077 125.78404878 -48.71899414 122.36865234 C-48.72306967 121.19728477 -48.7271452 120.02591721 -48.73134422 118.81905365 C-48.75216247 112.62074462 -48.76648341 106.42245746 -48.77587891 100.22412109 C-48.78694391 93.84113739 -48.82135762 87.45850219 -48.86105061 81.07564163 C-48.88725662 76.14950942 -48.89557423 71.22345988 -48.89916039 66.2972641 C-48.90401471 63.94507235 -48.91559552 61.592884 -48.93419838 59.2407608 C-48.9586777 55.94099106 -48.95760859 52.64211885 -48.95068359 49.34228516 C-48.96349365 48.38295074 -48.97630371 47.42361633 -48.98950195 46.43521118 C-48.8962078 34.15867487 -43.60517682 23.09810455 -35.44946289 14.03271484 C-25.46447036 4.51802994 -13.58415854 -0.01259912 0 0 Z " fill="#74BDD5" transform="translate(99.480712890625,262.70947265625)"/>
<path d="M0 0 C1.00470337 -0.00671722 2.00940674 -0.01343445 3.04455566 -0.02035522 C6.33664008 -0.03921482 9.62851936 -0.04325319 12.9206543 -0.04541016 C15.22934551 -0.05184595 17.53803592 -0.05857488 19.84672546 -0.06558228 C24.67566823 -0.07752462 29.50453961 -0.08126618 34.33349609 -0.08007812 C40.49314999 -0.079875 46.65234219 -0.10718446 52.81188679 -0.14162254 C57.57769333 -0.1639585 62.34338988 -0.16791362 67.10924339 -0.16685867 C69.3788328 -0.16920426 71.64842572 -0.17796837 73.91796303 -0.19352341 C92.14591599 -0.306773 107.7093087 0.93912864 121.68237305 14.04052734 C135.66749508 28.95611112 136.0266141 45.71989171 135.89331055 65.02880859 C135.89092179 67.32276811 135.89002171 69.61672961 135.89053345 71.91069031 C135.88742048 76.69571347 135.87096614 81.48043382 135.84399414 86.26538086 C135.80992044 92.38609802 135.80236927 98.50648503 135.80388451 104.62728596 C135.80333988 109.3551496 135.7923594 114.08294169 135.77788162 118.81078148 C135.77153856 121.06773526 135.76758059 123.32469711 135.76609421 125.58165932 C135.76174013 128.73516195 135.74419644 131.88831999 135.72290039 135.04174805 C135.72380676 135.96503906 135.72471313 136.88833008 135.72564697 137.83959961 C135.58717703 151.91849398 130.39892218 165.23685802 120.43237305 175.29052734 C109.44010749 184.5275763 97.5633793 188.61277264 83.33544922 188.54931641 C81.86790443 188.55457336 81.86790443 188.55457336 80.37071228 188.55993652 C77.15551532 188.5686959 73.94054078 188.56292375 70.7253418 188.55615234 C68.47626198 188.55750098 66.22718246 188.55944317 63.97810364 188.56195068 C59.27004209 188.56489439 54.56205659 188.56062972 49.85400391 188.55126953 C43.84219626 188.53989526 37.83056762 188.54642651 31.81876659 188.55841446 C27.1748573 188.56567023 22.53098985 188.56332776 17.88707924 188.55815887 C15.67167451 188.55683162 13.45626589 188.55843743 11.24086571 188.56311798 C8.13296959 188.5682423 5.02535577 188.56038977 1.91748047 188.54931641 C1.01582153 188.55336487 0.1141626 188.55741333 -0.81481934 188.56158447 C-16.00458887 188.46218254 -28.28788168 184.28602802 -39.38012695 173.63818359 C-47.04208936 165.41525608 -52.65123572 154.26499906 -52.71479797 142.83485413 C-52.72195328 141.94782806 -52.72910858 141.060802 -52.73648071 140.14689636 C-52.73916962 139.18117203 -52.74185852 138.21544769 -52.74462891 137.22045898 C-52.7512001 136.19712463 -52.7577713 135.17379028 -52.76454163 134.1194458 C-52.784263 130.72985762 -52.79593773 127.34031383 -52.8059082 123.95068359 C-52.80998373 122.79009367 -52.81405926 121.62950375 -52.81825829 120.43374443 C-52.83911895 114.28501438 -52.85341796 108.13630661 -52.86279297 101.98754883 C-52.87382785 95.6596026 -52.90819437 89.33201087 -52.94796467 83.00418949 C-52.97421388 78.12000409 -52.98249243 73.23590187 -52.98607445 68.35165215 C-52.99092276 66.02065081 -53.00248614 63.68965274 -53.02111244 61.35872078 C-53.14697574 44.55698844 -52.74938971 29.91571234 -41.56762695 16.29052734 C-29.39499992 4.30459704 -16.78573715 -0.01643968 0 0 Z " fill="#74BDD4" transform="translate(314.567626953125,262.70947265625)"/>
<path d="M0 0 C5.07628235 1.47588209 8.53023883 5.9183632 12.02734375 9.671875 C12.63191406 10.31253906 13.23648438 10.95320313 13.859375 11.61328125 C14.39046875 12.21140625 14.9215625 12.80953125 15.46875 13.42578125 C17.03617562 14.84740049 17.03617562 14.84740049 19.02783203 14.35546875 C22.51722287 13.11130406 24.7390007 10.24829936 27.234375 7.61328125 C33.86193763 0.71553021 33.86193763 0.71553021 38.921875 0.30078125 C42.24164827 0.33096101 43.09982021 0.60718245 46.046875 2.48828125 C48.46229558 4.97689639 49.03154029 5.9283358 49.421875 9.36328125 C48.79967935 15.83411597 43.83303568 20.16726516 39.359375 24.48828125 C38.85277344 24.98585938 38.34617188 25.4834375 37.82421875 25.99609375 C36.59052193 27.20651327 35.35059716 28.41057978 34.109375 29.61328125 C35.75927706 33.90925264 38.92680307 36.61845771 42.171875 39.73828125 C48.99703068 46.34940766 48.99703068 46.34940766 49.359375 50.42578125 C49.07473566 54.05493281 48.33151594 55.7562429 46.109375 58.61328125 C43.78685884 60.35516837 41.83620701 60.67337821 38.984375 61.30078125 C33.7794449 60.37732591 31.44748221 57.79557679 27.734375 54.16796875 C24.64739389 51.16367463 21.40329635 48.38629789 18.109375 45.61328125 C17.69574707 46.032146 17.28211914 46.45101074 16.85595703 46.88256836 C14.98470669 48.77457534 13.10959915 50.6627131 11.234375 52.55078125 C10.58339844 53.21013672 9.93242187 53.86949219 9.26171875 54.54882812 C8.32392578 55.49145508 8.32392578 55.49145508 7.3671875 56.453125 C6.7911377 57.03441162 6.21508789 57.61569824 5.62158203 58.21459961 C3.2607336 60.39821289 2.0830732 60.61576255 -1.203125 60.92578125 C-5.46598611 60.56452183 -6.91054554 59.59336071 -9.890625 56.61328125 C-11.54429507 53.30594111 -11.64762182 50.16053081 -10.890625 46.61328125 C-8.43930179 42.77990637 -5.14428858 39.78130557 -1.83203125 36.6953125 C-0.87103516 35.78845703 -0.87103516 35.78845703 0.109375 34.86328125 C0.7075 34.3321875 1.305625 33.80109375 1.921875 33.25390625 C3.34349424 31.68648063 3.34349424 31.68648063 2.8515625 29.69482422 C1.60739781 26.20543338 -1.25560689 23.98365555 -3.890625 21.48828125 C-10.76579186 14.88241816 -10.76579186 14.88241816 -11.265625 9.80078125 C-11.20389817 6.41197855 -10.87929291 5.59628311 -8.890625 2.61328125 C-5.82016296 0.56630656 -3.72046576 -0.24476748 0 0 Z " fill="#51707B" transform="translate(125.890625,326.38671875)"/>
<path d="M0 0 C2.8100346 1.79363911 4.50940468 3.01880935 6 6 C6.08449628 7.7404417 6.10723024 9.48409722 6.09765625 11.2265625 C6.09443359 12.2578125 6.09121094 13.2890625 6.08789062 14.3515625 C6.07532227 15.97191406 6.07532227 15.97191406 6.0625 17.625 C6.05798828 18.71296875 6.05347656 19.8009375 6.04882812 20.921875 C6.03701776 23.61463789 6.02054778 26.30729188 6 29 C6.63502441 28.97381592 7.27004883 28.94763184 7.92431641 28.9206543 C10.82428878 28.81619605 13.7238647 28.75152253 16.625 28.6875 C17.62402344 28.64560547 18.62304688 28.60371094 19.65234375 28.56054688 C28.00029056 28.42233584 28.00029056 28.42233584 31.671875 31.26953125 C34.53876133 34.63186942 34.78617324 35.86848394 34.46875 40.06640625 C33.73623313 43.08803835 32.19716904 44.86745358 30 47 C27.44276771 48.27861615 25.63262898 48.11336609 22.7734375 48.09765625 C21.7421875 48.09443359 20.7109375 48.09121094 19.6484375 48.08789062 C18.56820312 48.07951172 17.48796875 48.07113281 16.375 48.0625 C14.74304688 48.05573242 14.74304688 48.05573242 13.078125 48.04882812 C10.38536211 48.03701776 7.69270812 48.02054778 5 48 C5.02618408 48.6705542 5.05236816 49.3411084 5.0793457 50.03198242 C5.18357238 53.08358128 5.24840623 56.13480542 5.3125 59.1875 C5.35439453 60.24259766 5.39628906 61.29769531 5.43945312 62.38476562 C5.56355118 70.25258221 5.56355118 70.25258221 2.60546875 74.17578125 C-1.22679039 76.8589372 -3.28730131 77.46202928 -8 77 C-10.69990662 75.20006226 -12.5418865 73.916227 -14 71 C-14.08449628 69.2595583 -14.10723024 67.51590278 -14.09765625 65.7734375 C-14.09443359 64.7421875 -14.09121094 63.7109375 -14.08789062 62.6484375 C-14.07951172 61.56820312 -14.07113281 60.48796875 -14.0625 59.375 C-14.05798828 58.28703125 -14.05347656 57.1990625 -14.04882812 56.078125 C-14.03701776 53.38536211 -14.02054778 50.69270812 -14 48 C-14.63502441 48.02618408 -15.27004883 48.05236816 -15.92431641 48.0793457 C-18.82428878 48.18380395 -21.7238647 48.24847747 -24.625 48.3125 C-25.62402344 48.35439453 -26.62304688 48.39628906 -27.65234375 48.43945312 C-35.99938856 48.57764923 -35.99938856 48.57764923 -39.63671875 45.7265625 C-42.38786093 42.55251747 -43.06689673 41.05245404 -43.3125 37 C-42.73436389 33.2999289 -40.6645237 31.54059237 -38 29 C-35.49502996 27.74751498 -33.79146726 27.88625594 -30.9921875 27.90234375 C-30.00605469 27.90556641 -29.01992187 27.90878906 -28.00390625 27.91210938 C-26.97136719 27.92048828 -25.93882813 27.92886719 -24.875 27.9375 C-23.31458984 27.94426758 -23.31458984 27.94426758 -21.72265625 27.95117188 C-19.14838038 27.96298048 -16.57421854 27.97944925 -14 28 C-14.02094727 27.35973877 -14.04189453 26.71947754 -14.06347656 26.05981445 C-14.14689284 23.14420425 -14.19873969 20.22884548 -14.25 17.3125 C-14.28351563 16.30509766 -14.31703125 15.29769531 -14.3515625 14.25976562 C-14.45070627 6.7496251 -14.45070627 6.7496251 -12.109375 2.85546875 C-8.39341271 -0.41320178 -4.81500472 -0.69181102 0 0 Z " fill="#51707B" transform="translate(149,106)"/>
<path d="M0 0 C1.24179016 -0.01283524 2.48358032 -0.02567047 3.76300049 -0.03889465 C5.12552492 -0.04706322 6.48805386 -0.05450673 7.85058594 -0.0612793 C8.8791785 -0.06739259 8.8791785 -0.06739259 9.92855072 -0.07362938 C13.55994872 -0.09449287 17.19130893 -0.1087918 20.82275391 -0.11816406 C24.56652411 -0.12921301 28.30969739 -0.16359356 32.05325699 -0.20333576 C34.9375516 -0.22953684 37.82170495 -0.23785906 40.70610809 -0.24144554 C42.08556894 -0.24630468 43.46502376 -0.25789966 44.84436798 -0.27648354 C58.30595853 -0.44653764 58.30595853 -0.44653764 63.08496094 4.17700195 C64.68704954 7.38117916 64.57781308 10.70039627 64.08496094 14.17700195 C61.96047824 17.62012909 60.93643452 18.89317742 57.08496094 20.17700195 C55.07764054 20.29090833 53.06680733 20.34624912 51.05639648 20.36987305 C49.19382454 20.39396744 49.19382454 20.39396744 47.29362488 20.41854858 C45.9363168 20.43003599 44.57900104 20.44064454 43.22167969 20.45043945 C42.53686838 20.45576313 41.85205708 20.46108681 41.14649391 20.46657181 C37.52158352 20.49327236 33.89670718 20.5126569 30.27172852 20.52709961 C27.27727697 20.54043647 24.2835073 20.56828674 21.28930664 20.60913086 C17.66773097 20.65852694 14.0467734 20.68322857 10.42487526 20.69032669 C9.0481777 20.69702588 7.67149322 20.71221357 6.29498863 20.7362175 C-5.81649137 20.93537001 -5.81649137 20.93537001 -9.74389648 17.76928711 C-12.05570851 15.00904646 -12.80993402 13.94777225 -13.29003906 10.42700195 C-12.76787916 5.90161615 -11.07274528 4.40989165 -7.91503906 1.17700195 C-5.19997704 -0.18052906 -3.03966355 0.0272859 0 0 Z " fill="#51717B" transform="translate(326.9150390625,133.822998046875)"/>
<path d="M0 0 C1.29063354 -0.00478363 2.58126709 -0.00956726 3.91101074 -0.01449585 C6.6380823 -0.0218518 9.3643328 -0.01120535 12.09130859 0.01220703 C15.57877706 0.04069693 19.06432172 0.02428567 22.55171967 -0.00565529 C25.88879877 -0.0281165 29.22536631 -0.01236882 32.5625 0 C33.81156128 -0.01012115 35.06062256 -0.02024231 36.34753418 -0.03067017 C45.97033611 0.09954535 45.97033611 0.09954535 49.06591797 3.06298828 C50.81741377 5.71890008 51.46162669 7.01866679 51.40625 10.1640625 C51.42558594 11.26234375 51.42558594 11.26234375 51.4453125 12.3828125 C50.43681778 15.84728847 48.87825712 17.90303492 45.78125 19.6640625 C41.45347585 20.42098008 37.16499054 20.34032952 32.78125 20.29296875 C31.5128125 20.29538071 30.244375 20.29779266 28.9375 20.30027771 C26.25694706 20.29929864 23.57862937 20.28849283 20.8984375 20.26098633 C17.47169258 20.22690202 14.04644557 20.23292544 10.61962891 20.2516489 C7.34008271 20.26478847 4.06076392 20.24649502 0.78125 20.23046875 C-0.4459375 20.23542862 -1.673125 20.24038849 -2.9375 20.24549866 C-4.0821875 20.22966232 -5.226875 20.21382599 -6.40625 20.19750977 C-7.41042969 20.19131119 -8.41460937 20.18511261 -9.44921875 20.1787262 C-12.98432581 19.52179508 -14.67138343 18.15923676 -17.21875 15.6640625 C-18.43135877 12.02623618 -18.61419552 9.48670251 -18.21875 5.6640625 C-13.90080357 -1.166889 -7.42488412 -0.0601639 0 0 Z " fill="#51707A" transform="translate(339.21875,345.3359375)"/>
<path d="M0 0 C3.59705851 1.91990239 5.74638748 4.61958121 8 8 C8.7556891 12.5341346 8.47811031 16.75640898 6.375 20.875 C3.73138045 24.35344677 2.12341806 25.62552731 -2 27 C-6.22575274 27.52821909 -8.37985365 27.31615304 -12.1875 25.375 C-16.34664012 21.86283724 -18.70455255 19.03120122 -19.5 13.5625 C-18.75473907 8.25251589 -16.91657155 4.74746229 -12.875 1.0625 C-8.54462954 -0.5378543 -4.55151336 -0.79378393 0 0 Z " fill="#51717C" transform="translate(361,312)"/>
<path d="M0 0 C4.6358881 1.69388219 7.55412525 3.67268313 10 8 C10.84904071 12.60907816 10.49346202 16.67368036 8.375 20.875 C5.73138045 24.35344677 4.12341806 25.62552731 0 27 C-4.22575274 27.52821909 -6.37985365 27.31615304 -10.1875 25.375 C-14.37590349 21.83812594 -16.71329047 19.00696671 -17.5 13.5 C-16.7483027 8.23811892 -14.33302389 5.40708077 -10.75 1.625 C-7.12956463 -0.51434817 -4.05442346 -0.65316842 0 0 Z " fill="#51717B" transform="translate(359,375)"/>
</svg>
