<?xml version="1.0" encoding="UTF-8"?>
<svg version="1.1" xmlns="http://www.w3.org/2000/svg" width="500" height="500">
<path d="M0 0 C2.37166503 -0.00269976 4.74332897 -0.0065862 7.11499023 -0.01159668 C12.06732805 -0.01746887 17.01937579 -0.00900229 21.97167969 0.00976562 C28.2893534 0.03255328 34.60634715 0.01941797 40.92399597 -0.00452423 C45.8159285 -0.01904382 50.70770234 -0.01434799 55.59963989 -0.00401306 C57.92782677 -0.00136279 60.2560285 -0.00455501 62.584198 -0.01393127 C80.61841481 -0.07063854 95.74012333 0.85827106 109.8125 13.5625 C119.81004911 24.01448316 123.8659183 36.18894005 123.85302734 50.32495117 C123.85974457 51.38934418 123.86646179 52.45373718 123.87338257 53.55038452 C123.89233129 57.05837719 123.89628548 60.56617813 123.8984375 64.07421875 C123.9048685 66.52411476 123.91159708 68.97401 123.91860962 71.42390442 C123.93057524 76.55744201 123.93429126 81.69091234 123.93310547 86.82446289 C123.93290254 93.38000448 123.96018202 99.93511132 123.99464989 106.49055004 C124.01696665 111.55141655 124.02094151 116.61217932 124.01988602 121.67308998 C124.02223564 124.08864144 124.03102289 126.50419603 124.04655075 128.91969872 C124.15868318 148.16784664 122.86403691 161.60763003 109.25 176.28125 C98.51876277 186.48314369 85.91204324 189.67512757 71.52490234 189.69238281 C70.52893036 189.69734772 69.53295837 189.70231262 68.50680542 189.70742798 C65.22067567 189.72199942 61.93459422 189.72884404 58.6484375 189.734375 C56.35405477 189.74013154 54.05967204 189.74588921 51.76528931 189.75164795 C46.95534034 189.76214435 42.14540802 189.7679956 37.33544922 189.77148438 C31.19585267 189.77695946 25.05647897 189.80097238 18.91695213 189.82945633 C14.17606989 189.84815526 9.43524049 189.85329222 4.69432449 189.85482025 C2.43228566 189.85783205 0.17024744 189.86581032 -2.09175491 189.87900543 C-20.54833361 189.97896578 -37.4153613 189.22729245 -51.4375 175.53125 C-60.70564033 164.90155298 -64.74072262 153.65897716 -64.72802734 139.73754883 C-64.73474457 138.67315582 -64.74146179 137.60876282 -64.74838257 136.51211548 C-64.76733129 133.00412281 -64.77128548 129.49632187 -64.7734375 125.98828125 C-64.7798685 123.53838524 -64.78659708 121.08849 -64.79360962 118.63859558 C-64.80557524 113.50505799 -64.80929126 108.37158766 -64.80810547 103.23803711 C-64.80790254 96.68249552 -64.83518202 90.12738868 -64.86964989 83.57194996 C-64.89196665 78.51108345 -64.89594151 73.45032068 -64.89488602 68.38941002 C-64.89723564 65.97385856 -64.90602289 63.55830397 -64.92155075 61.14280128 C-65.01711018 44.73949941 -64.7760473 31.99479901 -54.4375 18.53125 C-53.99792969 17.91636719 -53.55835938 17.30148438 -53.10546875 16.66796875 C-39.96839707 -0.40643853 -19.44208021 -0.07829935 0 0 Z " fill="#74BCD3" transform="translate(325.4375,48.46875)"/>
<path d="M0 0 C0.8925499 -0.00860046 1.78509979 -0.01720093 2.70469666 -0.02606201 C3.67662964 -0.03032196 4.64856262 -0.03458191 5.64994812 -0.03897095 C6.67982346 -0.04714844 7.70969879 -0.05532593 8.77078247 -0.06375122 C12.18321662 -0.08858265 15.59560901 -0.10512169 19.00810242 -0.11953735 C20.1772286 -0.12486103 21.34635479 -0.13018471 22.55090904 -0.13566971 C28.74732685 -0.16240021 34.94372459 -0.18176958 41.1401825 -0.19619751 C46.24876464 -0.20949794 51.35694369 -0.23727939 56.46537781 -0.27822876 C62.64922967 -0.32779311 68.83271789 -0.35234867 75.01675987 -0.35942459 C77.36287085 -0.36610065 79.70897489 -0.38122634 82.05497169 -0.4053154 C99.18425347 -0.5710696 114.3667437 -0.22242077 127.51982117 12.15390015 C128.21591492 12.74944702 128.91200867 13.3449939 129.62919617 13.95858765 C137.70807699 21.27817515 142.86489098 31.67040404 143.70807838 42.59244919 C143.78553671 45.36645616 143.80153245 48.1341861 143.79447937 50.90927124 C143.7995903 51.95751572 143.80470123 53.00576019 143.80996704 54.08576965 C143.8238078 57.53301791 143.82291037 60.98006499 143.82060242 64.42733765 C143.82449241 66.83575514 143.8288277 69.24417196 143.83358765 71.65258789 C143.84103804 76.6943891 143.84076714 81.73612027 143.835495 86.77792358 C143.82970245 93.22258676 143.84663224 99.66696234 143.86983967 106.11157799 C143.88460779 111.08400128 143.88544449 116.05635581 143.88232994 121.02879715 C143.88284162 123.40412592 143.88805033 125.77945869 143.89814186 128.15476608 C143.91054825 131.48327807 143.903689 134.81123614 143.89213562 138.13973999 C143.89977936 139.11044937 143.9074231 140.08115875 143.91529846 141.08128357 C143.81788695 153.8484856 139.16066957 165.55048582 130.39482117 174.90390015 C114.77490286 189.50342178 97.98732918 189.62255422 77.83622742 189.5874939 C75.53039396 189.59206277 73.22456185 189.59737043 70.91873169 189.6033783 C66.10170435 189.6122795 61.28484307 189.60992014 56.46781921 189.59994507 C50.32389042 189.58845596 44.18053644 189.60868201 38.03668308 189.63786221 C33.27944354 189.65629037 28.52234009 189.65591861 23.76507378 189.65022469 C21.50107453 189.6500723 19.23706558 189.65604748 16.97310066 189.66851616 C0.46309482 189.7466535 -12.47857443 188.78658287 -26.48017883 179.15390015 C-27.38767883 178.53515015 -28.29517883 177.91640015 -29.23017883 177.27890015 C-37.12779613 169.82003936 -43.79657133 158.77098658 -44.66901588 147.77355003 C-44.74662196 144.956844 -44.76183847 142.14623847 -44.75483704 139.32846069 C-44.75994797 138.2608551 -44.7650589 137.19324951 -44.77032471 136.09329224 C-44.7841867 132.57567689 -44.78326626 129.05825826 -44.78096008 125.5406189 C-44.78484923 123.08593168 -44.78918436 120.63124513 -44.79394531 118.17655945 C-44.80140051 113.03462542 -44.80112155 107.89276007 -44.79585266 102.75082397 C-44.790063 96.17721881 -44.8069806 89.60389586 -44.83019733 83.03033733 C-44.84496503 77.96097686 -44.84580215 72.89168385 -44.84268761 67.82230568 C-44.84319942 65.39952855 -44.84841075 62.9767475 -44.85849953 60.55399132 C-44.87090341 57.15831821 -44.86404783 53.7631883 -44.85249329 50.36752319 C-44.86013702 49.37654129 -44.86778076 48.38555939 -44.87565613 47.36454773 C-44.77890197 34.43144112 -39.91341792 23.37729202 -31.22627258 13.81015015 C-22.89238473 5.90507531 -11.67411682 0.08412656 0 0 Z " fill="#74BBD3" transform="translate(94.48017883300781,48.846099853515625)"/>
<path d="M0 0 C1.58699707 -0.0076664 1.58699707 -0.0076664 3.20605469 -0.01548767 C6.685768 -0.02932971 10.16528204 -0.0284309 13.64501953 -0.02612305 C16.07585727 -0.03001296 18.50669433 -0.03434824 20.93753052 -0.03910828 C26.02640997 -0.04655894 31.11522003 -0.04628756 36.20410156 -0.04101562 C42.70929785 -0.03522302 49.21420924 -0.05215288 55.71935844 -0.0753603 C60.73810473 -0.09012762 65.75678287 -0.09096523 70.77554703 -0.08785057 C73.17320444 -0.08836228 75.57086581 -0.09357174 77.96850204 -0.10366249 C81.32814536 -0.11606732 84.68723976 -0.10921053 88.046875 -0.09765625 C89.02693512 -0.10529999 90.00699524 -0.11294373 91.01675415 -0.12081909 C103.83030176 -0.02394065 115.60310317 4.78658357 125.02783203 13.5871582 C138.6798761 28.53465171 138.75934312 44.96853287 138.68408203 64.0871582 C138.68678098 66.50748856 138.69066674 68.92781786 138.69567871 71.34814453 C138.70155472 76.40480946 138.69307182 81.46119051 138.67431641 86.51782227 C138.65152854 92.9735016 138.66466177 99.42851556 138.68860626 105.88417053 C138.7031154 110.87728822 138.69843476 115.87025023 138.68809509 120.8633728 C138.68544195 123.24262574 138.68864737 125.62189317 138.69801331 128.00112915 C138.77120936 151.81712293 138.77120936 151.81712293 134.15283203 161.2746582 C133.62302734 162.36262695 133.09322266 163.4505957 132.54736328 164.5715332 C125.68477372 175.21278318 116.50737819 183.47782797 104.15283203 187.2746582 C92.55503882 189.69685678 80.93898767 189.56849882 69.15283203 189.5402832 C67.14371697 189.54163424 65.13460223 189.54357841 63.12548828 189.54608154 C58.9366542 189.54901216 54.74790604 189.54480207 50.55908203 189.53540039 C45.22706256 189.52400719 39.89524453 189.53057779 34.56323242 189.54254532 C30.42104614 189.54981994 26.27890654 189.54745044 22.13671875 189.54228973 C20.17220027 189.54096868 18.20767736 189.54254587 16.24316406 189.54724884 C-4.06204891 189.58520751 -22.06422029 188.89242461 -37.58935547 173.9309082 C-46.8427387 163.04457499 -50.10124772 151.68577262 -50.29638672 137.6340332 C-50.31871368 136.49807709 -50.34104065 135.36212097 -50.36404419 134.19174194 C-50.43252212 130.46947047 -50.48514818 126.74722753 -50.53466797 123.0246582 C-50.56311295 121.11447906 -50.56311295 121.11447906 -50.59213257 119.16571045 C-50.84975717 101.3655609 -50.94600392 83.56554166 -50.70401001 65.76452637 C-50.67471555 63.54153418 -50.65131001 61.31845569 -50.63412476 59.09533691 C-50.48183736 41.85659992 -48.97005418 27.31606717 -36.78076172 14.02075195 C-25.98626938 3.8441912 -14.56062296 -0.03665524 0 0 Z " fill="#74BBD3" transform="translate(310.84716796875,261.725341796875)"/>
<path d="M0 0 C1.58261627 -0.01029488 1.58261627 -0.01029488 3.19720459 -0.02079773 C6.65651218 -0.03897598 10.11536231 -0.03524068 13.57470703 -0.02954102 C15.99789577 -0.0341073 18.42108321 -0.0394142 20.8442688 -0.04542542 C25.91283442 -0.0543391 30.98124232 -0.05195337 36.04980469 -0.04199219 C42.52121159 -0.03050869 48.99207232 -0.05071418 55.46340752 -0.07990932 C60.46509212 -0.09832155 65.46664707 -0.09796875 70.46835709 -0.0922718 C72.85319916 -0.09211919 75.23805037 -0.09811396 77.62285995 -0.11056328 C101.51581479 -0.21772577 101.51581479 -0.21772577 110.95751953 4.40405273 C112.04548828 4.93385742 113.13345703 5.46366211 114.25439453 6.00952148 C126.2587669 13.75119475 134.12971919 24.02516819 137.53621292 38.07196808 C138.31877391 42.40372656 138.25214228 46.73747911 138.24804688 51.12768555 C138.2547641 52.17271744 138.26148132 53.21774933 138.2684021 54.29444885 C138.28732177 57.73207419 138.29130336 61.16950364 138.29345703 64.60717773 C138.29988943 67.01080402 138.30661812 69.41442953 138.31362915 71.8180542 C138.32558707 76.85145888 138.32931152 81.88479501 138.328125 86.91821289 C138.32792197 93.34481381 138.35521495 99.77097174 138.38966942 106.1974678 C138.4119874 111.1613972 138.41596102 116.12522084 138.41490555 121.08919525 C138.41725447 123.45729854 138.4260377 125.82540505 138.44157028 128.19345856 C138.58275876 151.94301077 138.58275876 151.94301077 133.95751953 161.40405273 C133.42771484 162.49202148 132.89791016 163.57999023 132.35205078 164.70092773 C125.48946122 175.34217771 116.31206569 183.6072225 103.95751953 187.40405273 C92.35972632 189.82625131 80.74367517 189.69789335 68.95751953 189.66967773 C66.94840447 189.67102877 64.93928973 189.67297294 62.93017578 189.67547607 C58.7413417 189.6784067 54.55259354 189.67419661 50.36376953 189.66479492 C45.03175006 189.65340172 39.69993203 189.65997232 34.36791992 189.67193985 C30.22573364 189.67921447 26.08359404 189.67684497 21.94140625 189.67168427 C19.97688777 189.67036321 18.01236486 189.6719404 16.04785156 189.67664337 C-4.49726071 189.71505051 -22.27624627 188.94457636 -37.92529297 173.78295898 C-46.71776753 163.90359181 -50.66689427 152.11721818 -50.56005859 139.04858398 C-50.56706787 137.97224701 -50.57407715 136.89591003 -50.58129883 135.78695679 C-50.598765 132.26321877 -50.58729602 128.74029755 -50.57373047 125.21655273 C-50.57642863 122.74755704 -50.58031375 120.27856239 -50.58532715 117.80957031 C-50.59120683 112.64857818 -50.58270828 107.48786398 -50.56396484 102.3269043 C-50.54117678 95.73321912 -50.55430802 89.14018537 -50.5782547 82.54652405 C-50.59275382 77.45222117 -50.58808775 72.35807107 -50.57774353 67.26376343 C-50.57508763 64.83344443 -50.57830568 62.40311127 -50.58766174 59.97280884 C-50.5978949 56.56800942 -50.58223069 53.16424446 -50.56005859 49.75952148 C-50.56815552 48.7690683 -50.57625244 47.77861511 -50.58459473 46.75814819 C-50.43711302 34.44619081 -45.22104117 22.78783924 -36.91748047 13.71655273 C-26.44587164 3.93842793 -14.03904713 -0.06490081 0 0 Z " fill="#74BBD3" transform="translate(100.04248046875,261.595947265625)"/>
<path d="M0 0 C5.70769231 3.12307692 5.70769231 3.12307692 7 7 C7.08178114 8.70016844 7.10749501 10.40336297 7.09765625 12.10546875 C7.09443359 13.08837891 7.09121094 14.07128906 7.08789062 15.08398438 C7.07532227 16.62022461 7.07532227 16.62022461 7.0625 18.1875 C7.05798828 19.22326172 7.05347656 20.25902344 7.04882812 21.32617188 C7.0370401 23.88417266 7.02058515 26.44205733 7 29 C7.63502441 28.97381592 8.27004883 28.94763184 8.92431641 28.9206543 C11.82428878 28.81619605 14.7238647 28.75152253 17.625 28.6875 C18.62402344 28.64560547 19.62304688 28.60371094 20.65234375 28.56054688 C29.00111687 28.42232215 29.00111687 28.42232215 32.66796875 31.23828125 C35.66795245 34.79102577 35.8284426 36.38586099 35.53125 40.84375 C34.67731226 44.30973258 32.79750603 45.91813505 30 48 C27.11734851 48.96088383 25.32337729 49.11670941 22.33203125 49.09765625 C21.43935547 49.09443359 20.54667969 49.09121094 19.62695312 49.08789062 C18.69818359 49.07951172 17.76941406 49.07113281 16.8125 49.0625 C15.40194336 49.05573242 15.40194336 49.05573242 13.96289062 49.04882812 C11.64186288 49.03704626 9.32096356 49.02059558 7 49 C7.02094727 49.57443848 7.04189453 50.14887695 7.06347656 50.74072266 C7.14713764 53.36863374 7.1988146 55.9962639 7.25 58.625 C7.28351563 59.52863281 7.31703125 60.43226563 7.3515625 61.36328125 C7.43538198 67.10491534 6.94604259 70.5003759 3 75 C-0.7373856 77.4915904 -2.57331583 77.45793285 -7 77 C-9.75329021 75.20437595 -11.52627461 73.94745078 -13 71 C-13.08449628 69.2595583 -13.10723024 67.51590278 -13.09765625 65.7734375 C-13.09443359 64.7421875 -13.09121094 63.7109375 -13.08789062 62.6484375 C-13.07951172 61.56820312 -13.07113281 60.48796875 -13.0625 59.375 C-13.05798828 58.28703125 -13.05347656 57.1990625 -13.04882812 56.078125 C-13.03701776 53.38536211 -13.02054778 50.69270812 -13 48 C-13.63502441 48.02618408 -14.27004883 48.05236816 -14.92431641 48.0793457 C-17.82428878 48.18380395 -20.7238647 48.24847747 -23.625 48.3125 C-24.62402344 48.35439453 -25.62304688 48.39628906 -26.65234375 48.43945312 C-34.99858974 48.57763601 -34.99858974 48.57763601 -38.640625 45.6953125 C-41.60381934 42.31020638 -42.15739994 40.48589818 -42 36 C-40.02061533 32.25330759 -38.52983947 30.35322631 -35 28 C-32.63989258 27.77294922 -32.63989258 27.77294922 -29.89453125 27.8046875 C-28.91162109 27.81113281 -27.92871094 27.81757813 -26.91601562 27.82421875 C-25.37977539 27.84935547 -25.37977539 27.84935547 -23.8125 27.875 C-22.77673828 27.88402344 -21.74097656 27.89304688 -20.67382812 27.90234375 C-18.11565315 27.9259214 -15.55794252 27.9588297 -13 28 C-13.01571045 27.39003174 -13.0314209 26.78006348 -13.04760742 26.15161133 C-13.11019813 23.3720029 -13.14906622 20.59254308 -13.1875 17.8125 C-13.21263672 16.85279297 -13.23777344 15.89308594 -13.26367188 14.90429688 C-13.35615957 5.99464847 -13.35615957 5.99464847 -10 2 C-6.78144775 -0.33067577 -3.89509474 -0.46741137 0 0 Z " fill="#50717B" transform="translate(147,105)"/>
<path d="M0 0 C2.4296875 2.19140625 2.4296875 2.19140625 5 5 C5.88300781 5.88300781 6.76601562 6.76601563 7.67578125 7.67578125 C10.1171875 10.1171875 12.55859375 12.55859375 15 15 C19.46651052 12.92189721 22.38334184 9.9164895 25.55859375 6.15234375 C28.64700714 2.67877026 30.93851971 0.56763055 35.625 -0.1875 C39.04253008 -0.3274671 39.94125605 -0.03549114 43 1.8125 C45.56491184 4.61787232 45.96018779 5.47248822 46.25 9.3125 C45.97721255 13.33611488 45.47053788 14.87065202 43 18 C41.02333852 19.71883607 39.04415186 21.36875662 37 23 C34.06026719 25.35418376 34.06026719 25.35418376 32 28 C31.8227982 31.54403603 32.77073206 32.74375936 35.125 35.375 C36.07375 36.24125 37.0225 37.1075 38 38 C39.25674109 39.22227351 40.506541 40.45171668 41.75 41.6875 C42.34296875 42.26886719 42.9359375 42.85023438 43.546875 43.44921875 C45.77558381 45.82770638 45.99844873 46.98355651 46.3125 50.3125 C45.95124058 54.57536111 44.98007946 56.01992054 42 59 C38.69479251 60.65260375 35.54412574 60.76612911 32 60 C28.9612673 58.02064201 26.51654115 55.59737224 24 53 C23.49082031 52.50242187 22.98164063 52.00484375 22.45703125 51.4921875 C21.28686508 50.34604233 20.14131232 49.17488033 19 48 C18.34 47.34 17.68 46.68 17 46 C12.36770856 46.49411109 9.91811526 49.78658875 6.875 53 C0.2637448 59.88077879 0.2637448 59.88077879 -4.3125 60.3125 C-8.57536111 59.95124058 -10.01992054 58.98007946 -13 56 C-14.60745059 52.78509882 -14.40305242 50.5698929 -14 47 C-11.1873782 41.78660459 -7.11182133 37.94485486 -2.41796875 34.421875 C-0.64495918 32.6439811 -0.21816505 31.49192967 0 29 C-2.94284871 24.76965498 -6.41006032 21.6626134 -10.44921875 18.4921875 C-13.27678535 15.77145591 -13.95277736 13.43287421 -14.375 9.5625 C-13.93878362 5.41844436 -12.90869728 3.90869728 -10 1 C-6.84203893 -0.57898053 -3.39329364 -0.81928171 0 0 Z " fill="#50717B" transform="translate(128,326)"/>
<path d="M0 0 C1.95728027 -0.0236412 1.95728027 -0.0236412 3.95410156 -0.04776001 C5.37045133 -0.03880995 6.78679336 -0.02855489 8.203125 -0.01708984 C9.66374108 -0.02046055 11.12435443 -0.0253153 12.58496094 -0.03158569 C15.64154852 -0.03894524 18.69740399 -0.02828262 21.75390625 -0.00488281 C25.66504184 0.02360621 29.57446198 0.00719705 33.48553467 -0.02274513 C36.50029341 -0.04084401 39.51464778 -0.03504861 42.52941895 -0.02210617 C43.97107142 -0.01877923 45.41276103 -0.02283427 46.85437012 -0.03450394 C48.87165592 -0.04725137 50.88907106 -0.0243647 52.90625 0 C54.05254883 0.00397797 55.19884766 0.00795593 56.37988281 0.01205444 C60.41261569 0.84519918 61.90016542 2.4819572 64.453125 5.64697266 C65.82947948 10.09988421 65.86331653 11.85588899 63.703125 16.02197266 C61.453125 18.64697266 61.453125 18.64697266 58.453125 19.64697266 C56.40977369 19.7560562 54.36307574 19.80591252 52.31689453 19.82397461 C51.05193146 19.83680984 49.78696838 19.84964508 48.4836731 19.86286926 C47.10109855 19.87103627 45.71851957 19.87848008 44.3359375 19.88525391 C43.63884548 19.88932943 42.94175346 19.89340496 42.22353745 19.89760399 C38.53493295 19.91844295 34.84636543 19.9327549 31.15771484 19.94213867 C27.35222537 19.95320823 23.54731979 19.98761969 19.74203682 20.02731037 C16.81146165 20.05347602 13.88102579 20.06183032 10.95034409 20.06542015 C9.54772872 20.07028508 8.14511954 20.08189661 6.74261856 20.10045815 C4.77793757 20.12484706 2.81297169 20.12146502 0.84814453 20.11694336 C-0.82705765 20.12574272 -0.82705765 20.12574272 -2.53610229 20.13471985 C-6.23137193 19.5360837 -7.88524011 18.2259279 -10.546875 15.64697266 C-12.12585553 12.48901159 -12.36615671 9.0402663 -11.546875 5.64697266 C-7.90388754 1.19506649 -5.7251984 0.01986798 0 0 Z " fill="#50707A" transform="translate(325.546875,133.35302734375)"/>
<path d="M0 0 C1.29063354 -0.00099701 2.58126709 -0.00199402 3.91101074 -0.00302124 C6.6382547 -0.0028422 9.36431121 0.01792662 12.09130859 0.05419922 C15.57861858 0.09957749 19.06419566 0.10065943 22.55171967 0.08716393 C25.88884241 0.07885548 29.22543682 0.10284075 32.5625 0.125 C34.43609192 0.12226578 34.43609192 0.12226578 36.34753418 0.11947632 C37.51224243 0.13854034 38.67695068 0.15760437 39.87695312 0.17724609 C40.89889771 0.18646088 41.92084229 0.19567566 42.97375488 0.20516968 C46.5114326 0.86216807 48.21068877 2.25737259 50.78125 4.7265625 C52.01617756 7.73191718 52.17090448 10.50912979 51.78125 13.7265625 C49.93085262 17.35213785 47.69143674 19.42316692 43.78125 20.7265625 C42.01894392 20.83917627 40.25280005 20.89558827 38.48706055 20.91943359 C36.86473763 20.94352798 36.86473763 20.94352798 35.2096405 20.96810913 C30.26842917 21.01260211 25.3273511 21.05361478 20.38598633 21.07666016 C17.77977576 21.09322815 15.17361077 21.1205288 12.56762695 21.15869141 C8.80916785 21.21344127 5.05177286 21.23533171 1.29296875 21.25 C0.13028976 21.27266937 -1.03238922 21.29533875 -2.2303009 21.31869507 C-11.25105846 21.29513011 -11.25105846 21.29513011 -14.93945312 18.33422852 C-17.16847351 15.78408213 -18.09276005 14.60732406 -18.40625 11.2890625 C-18.50292969 10.56847656 -18.59960938 9.84789062 -18.69921875 9.10546875 C-16.65522871 -1.01477462 -8.49900701 -0.12533205 0 0 Z " fill="#50727C" transform="translate(338.21875,344.2734375)"/>
<path d="M0 0 C3.68521948 2.32329054 6.15353631 4.42079847 7.4453125 8.703125 C8.32016839 13.57998122 7.75326661 16.63437105 4.875 20.8125 C1.75623144 24.14885707 -0.54175497 26.11970575 -5.125 26.3125 C-10.46111097 25.92553012 -13.89432539 24.17271931 -17.5 20.1875 C-19.57378886 15.88040005 -19.84583962 12.51098478 -19.125 7.8125 C-17.50022535 4.07551831 -15.56878693 1.96486683 -12.125 -0.1875 C-7.64190989 -1.68186337 -4.44100189 -1.68758072 0 0 Z " fill="#50717C" transform="translate(361.125,375.1875)"/>
<path d="M0 0 C3.92175565 2.11171458 6.64691003 4.22553488 9 8 C9.75035325 12.52418874 9.54646353 16.71581071 7.75 20.9375 C3.97574825 25.38572528 1.02345066 26.59552215 -4.75 27.0703125 C-8.90336974 26.9405197 -11.69717734 25.07819806 -14.8125 22.5 C-17.45995002 19.1558526 -17.33687321 15.35300298 -17.27734375 11.28515625 C-16.83767775 7.66255607 -15.41791641 5.67243392 -13 3 C-8.634442 0.089628 -5.20499921 -0.6506249 0 0 Z " fill="#50717C" transform="translate(359,311)"/>
<path d="M0 0 C1 2 1 2 0.546875 3.83984375 C0.28390625 4.53207031 0.0209375 5.22429687 -0.25 5.9375 C-0.50265625 6.62714844 -0.7553125 7.31679688 -1.015625 8.02734375 C-2 10 -2 10 -3.609375 11.50390625 C-5.45387852 13.14787183 -5.45387852 13.14787183 -5 17 C-5.48797562 17.67048874 -5.97595123 18.34097748 -6.47871399 19.03178406 C-8.87051272 23.69847729 -8.39148752 28.32395309 -8.34057617 33.49145508 C-8.34101425 34.65286011 -8.34145233 35.81426514 -8.34190369 37.01086426 C-8.33981474 40.84725796 -8.31647779 44.68321394 -8.29296875 48.51953125 C-8.28737317 51.18040202 -8.28295532 53.84124859 -8.28010559 56.50212097 C-8.27079006 62.78836399 -8.24618307 69.07445004 -8.21605712 75.36062402 C-8.18249769 82.51898545 -8.16602324 89.67735447 -8.15097082 96.83577502 C-8.119633 111.55726353 -8.06688214 126.27862903 -8 141 C-10.83134462 136.75298308 -11.11318318 132.95198158 -11.22119141 127.93334961 C-11.24429886 126.93850052 -11.26740631 125.94365143 -11.29121399 124.9186554 C-11.311129 123.84077255 -11.33104401 122.76288971 -11.3515625 121.65234375 C-11.38717537 119.94204231 -11.38717537 119.94204231 -11.42350769 118.19718933 C-11.4979128 114.44405267 -11.56300042 110.69086141 -11.625 106.9375 C-11.64646088 105.65655457 -11.66792175 104.37560913 -11.69003296 103.05584717 C-11.97503505 85.19914034 -12.10706501 67.34514952 -11.85784912 49.48684692 C-11.82787976 47.265141 -11.80404651 45.04334289 -11.78668213 42.82150269 C-11.66439275 28.96322315 -11.33577337 16.56766877 -3.25 4.75 C-2.63640625 3.83734375 -2.0228125 2.9246875 -1.390625 1.984375 C-0.93171875 1.32953125 -0.4728125 0.6746875 0 0 Z " fill="#78AEBD" transform="translate(272,278)"/>
<path d="M0 0 C5.05145222 5.05145222 5.34500214 13.3832999 5.40658569 20.17732239 C5.400513 21.16359116 5.39444031 22.14985992 5.38818359 23.16601562 C5.39344055 24.2340593 5.39869751 25.30210297 5.40411377 26.4025116 C5.41722815 29.90391016 5.40860585 33.40484747 5.3984375 36.90625 C5.40046069 39.35664964 5.40337416 41.8070487 5.40713501 44.25744629 C5.41154679 49.38148762 5.40516411 54.50537156 5.39111328 59.62939453 C5.37402236 66.17939026 5.38386966 72.72901712 5.40183067 79.27899933 C5.41269939 84.33549756 5.40920797 89.39190912 5.4014473 94.44841003 C5.39945383 96.86280868 5.40187438 99.27721533 5.40888596 101.69160461 C5.41655117 105.07260826 5.40482483 108.45302421 5.38818359 111.83398438 C5.39425629 112.82025314 5.40032898 113.80652191 5.40658569 114.82267761 C5.34759933 121.33017257 4.19259558 126.87555234 2 133 C0.94619942 131.15922737 0.94619942 131.15922737 0 129 C0.28406708 128.15927948 0.56813416 127.31855896 0.86080933 126.45236206 C2.48158667 121.5405327 2.26211808 116.90126089 2.22705078 111.76220703 C2.22748886 110.07840187 2.22748886 110.07840187 2.22793579 108.36058044 C2.22654527 104.65957848 2.21099687 100.95877919 2.1953125 97.2578125 C2.19158139 94.68806061 2.18873488 92.11830729 2.18673706 89.54855347 C2.1798876 83.48195986 2.16413337 77.41544958 2.14403808 71.34888732 C2.12165012 64.43957911 2.11067838 57.53026735 2.10064721 50.62093186 C2.07976625 36.41391574 2.0446084 22.20696045 2 8 C1.34 8 0.68 8 0 8 C0 5.36 0 2.72 0 0 Z " fill="#7EB5C6" transform="translate(444,76)"/>
<path d="M0 0 C1.57285011 -0.005476 1.57285011 -0.005476 3.17747498 -0.01106262 C6.60489659 -0.01909613 10.03183487 -0.00562446 13.45922852 0.0090332 C15.85531107 0.0095524 18.25139406 0.0090324 20.6474762 0.00752258 C25.64948957 0.00761197 30.65134062 0.01797719 35.65332031 0.03613281 C42.06817839 0.0589048 48.48280141 0.05934488 54.89768887 0.05261517 C59.83641149 0.04927792 64.77508036 0.05589927 69.7137928 0.0657444 C72.08011659 0.06959444 74.44644636 0.07074543 76.81277275 0.06915855 C80.11097561 0.06878845 83.40887406 0.08139007 86.70703125 0.09765625 C87.68524841 0.09517883 88.66346558 0.09270142 89.67132568 0.09014893 C90.56965622 0.09723373 91.46798676 0.10431854 92.39353943 0.11161804 C93.56122187 0.11469735 93.56122187 0.11469735 94.75249386 0.11783886 C97.16625978 0.40378124 98.80367212 1.17183265 100.90063477 2.37231445 C100.0248773 2.37727967 100.0248773 2.37727967 99.13142776 2.3823452 C84.92640716 2.46355986 70.72149186 2.55564725 56.51662064 2.65984154 C49.64725217 2.70996681 42.77789564 2.7564097 35.90844727 2.79418945 C29.28185158 2.83064393 22.65537978 2.87735267 16.02889252 2.93037796 C13.49791483 2.94894269 10.96690932 2.96404291 8.4358902 2.97565842 C4.89698445 2.99248506 1.35837698 3.02151201 -2.18041992 3.0534668 C-3.23202301 3.05562698 -4.2836261 3.05778717 -5.36709595 3.06001282 C-6.81416428 3.07675804 -6.81416428 3.07675804 -8.29046631 3.09384155 C-9.12745434 3.09937231 -9.96444237 3.10490307 -10.82679367 3.11060143 C-13.31499024 3.39714618 -14.91188607 4.19419812 -17.09936523 5.37231445 C-17.75936523 5.37231445 -18.41936523 5.37231445 -19.09936523 5.37231445 C-19.84186523 5.82606445 -20.58436523 6.27981445 -21.34936523 6.74731445 C-24.2283627 8.44854023 -26.87195799 9.51167252 -30.09936523 10.37231445 C-30.75936523 10.04231445 -31.41936523 9.71231445 -32.09936523 9.37231445 C-30.67379097 8.41677769 -29.23289478 7.48410394 -27.78686523 6.55981445 C-26.98635742 6.03774414 -26.18584961 5.51567383 -25.36108398 4.9777832 C-17.1985303 0.9600472 -8.99589242 -0.07132661 0 0 Z " fill="#618E9B" transform="translate(312.099365234375,48.627685546875)"/>
<path d="M0 0 C1.73543126 2.60314689 2.61121812 3.98694043 3 7 C2.34 7.66 1.68 8.32 1 9 C0.70196472 11.14036744 0.70196472 11.14036744 0.75949097 13.64431763 C0.75674164 14.62310883 0.75399231 15.60190002 0.75115967 16.61035156 C0.75835022 17.68784668 0.76554077 18.7653418 0.77294922 19.87548828 C0.77265717 21.00719452 0.77236511 22.13890076 0.77206421 23.30490112 C0.77346188 27.0601152 0.78904374 30.81513292 0.8046875 34.5703125 C0.80841607 37.16820162 0.81126378 39.76609213 0.81326294 42.36398315 C0.82012911 48.5121659 0.83590538 54.66026713 0.85596192 60.80841911 C0.87829864 67.80711315 0.88930873 74.80581054 0.89935279 81.80453134 C0.92027103 96.20305902 0.95546091 110.60152699 1 125 C-1.65794726 121.01307911 -2.12388237 118.07871352 -2.13371277 113.35209656 C-2.13797775 112.42274292 -2.14224274 111.49338928 -2.14663696 110.53587341 C-2.14618378 109.52331985 -2.14573059 108.5107663 -2.14526367 107.4675293 C-2.14862228 106.39554291 -2.1519809 105.32355652 -2.15544128 104.21908569 C-2.16494995 100.67078496 -2.16689442 97.12253143 -2.16796875 93.57421875 C-2.17118159 91.10805746 -2.17454568 88.64189636 -2.17805481 86.17573547 C-2.18404601 81.00330158 -2.18589474 75.83088439 -2.18530273 70.65844727 C-2.18520116 64.03408045 -2.19884878 57.40982094 -2.21607494 50.78547955 C-2.22720002 45.69051116 -2.22922178 40.59556866 -2.22869301 35.50058937 C-2.22987253 33.05858808 -2.23429275 30.61658612 -2.24202538 28.17459679 C-2.2518345 24.75653982 -2.24894332 21.33871509 -2.24291992 17.9206543 C-2.24853943 16.91417343 -2.25415894 15.90769257 -2.25994873 14.87071228 C-2.23600038 9.51628739 -1.77009069 5.06404294 0 0 Z " fill="#77ACBC" transform="translate(263,81)"/>
<path d="M0 0 C0.91371368 -0.0071553 1.82742737 -0.01431061 2.76882935 -0.02168274 C4.26185074 -0.02571609 4.26185074 -0.02571609 5.78503418 -0.02983093 C6.83923553 -0.03640213 7.89343689 -0.04297333 8.97958374 -0.04974365 C12.47137526 -0.06946573 15.96312371 -0.08113913 19.45495605 -0.09111023 C20.64989182 -0.09518576 21.84482758 -0.09926128 23.07597351 -0.10346031 C29.40509874 -0.12432001 35.73420232 -0.13862016 42.06335449 -0.147995 C48.58196483 -0.15903731 55.10023173 -0.19341281 61.61872101 -0.23316669 C66.64612435 -0.25939271 71.67344676 -0.26769235 76.70091248 -0.27127647 C79.10251678 -0.27612976 81.50411778 -0.28770754 83.90565491 -0.30631447 C110.0842203 -0.49647766 110.0842203 -0.49647766 122.42370605 7.14717102 C121.76370605 7.80717102 121.10370605 8.46717102 120.42370605 9.14717102 C120.42370605 8.48717102 120.42370605 7.82717102 120.42370605 7.14717102 C119.59870605 7.31217102 118.77370605 7.47717102 117.92370605 7.64717102 C114.01098288 8.20613147 110.37187433 8.21524289 106.42370605 8.14717102 C106.34120605 7.52842102 106.25870605 6.90967102 106.17370605 6.27217102 C105.62526179 4.01719147 105.62526179 4.01719147 103.64681149 3.03023148 C101.27952594 2.08989989 99.63958998 1.89578048 97.10401917 1.89320374 C96.24750259 1.88756409 95.39098602 1.88192444 94.5085144 1.87611389 C93.5769754 1.88016235 92.6454364 1.88421082 91.68566895 1.88838196 C90.69825211 1.88487732 89.71083527 1.88137268 88.6934967 1.87776184 C85.42771383 1.86895561 82.16214741 1.87479031 78.8963623 1.88154602 C76.62719176 1.88019895 74.35802149 1.87825806 72.08885193 1.87574768 C67.33170831 1.87279783 62.57463978 1.87708927 57.81750488 1.88642883 C51.71979569 1.89781673 45.62226268 1.89126713 39.52455997 1.87928391 C34.83799411 1.87205608 30.15147 1.87435761 25.46490288 1.87953949 C23.21662818 1.88087376 20.96834969 1.87923604 18.72007942 1.87458038 C15.57699678 1.86950081 12.43419912 1.87724605 9.2911377 1.88838196 C7.89686554 1.88230927 7.89686554 1.88230927 6.47442627 1.87611389 C1.92623602 1.90596273 -1.38398321 2.22102961 -5.57629395 4.14717102 C-8.88879395 3.77217102 -8.88879395 3.77217102 -11.57629395 3.14717102 C-7.6179516 0.50827613 -4.69192341 0.02531977 0 0 Z " fill="#7FB7C8" transform="translate(93.5762939453125,261.8528289794922)"/>
<path d="M0 0 C0.66 0.99 1.32 1.98 2 3 C1.53795886 4.9027167 1.06565814 6.80376392 0.53180504 8.68759346 C-0.43005743 12.86998531 -0.26865775 17.07514004 -0.24291992 21.34741211 C-0.24481827 22.3515918 -0.24671661 23.35577148 -0.24867249 24.39038086 C-0.2523564 27.68611634 -0.24171428 30.98162811 -0.23046875 34.27734375 C-0.22927602 36.57279942 -0.22882398 38.86825558 -0.2290802 41.16371155 C-0.22751973 45.96081623 -0.21925985 50.75784583 -0.20581055 55.55493164 C-0.18875418 61.71789774 -0.18499834 67.88078194 -0.18575573 74.04376888 C-0.1854846 78.77648202 -0.18001373 83.50917709 -0.17275429 88.24188423 C-0.16956355 90.51579209 -0.16759927 92.789702 -0.16686058 95.06361198 C-0.16470509 98.22856052 -0.1559801 101.39342004 -0.14526367 104.55834961 C-0.14571686 105.50531204 -0.14617004 106.45227448 -0.14663696 107.42793274 C-0.5465551 111.53890932 -0.5465551 111.53890932 1 115 C1.23363881 116.84891946 1.41303635 118.70488031 1.5625 120.5625 C1.64628906 121.57441406 1.73007812 122.58632813 1.81640625 123.62890625 C1.87699219 124.41136719 1.93757813 125.19382812 2 126 C2.66 126 3.32 126 4 126 C4 127.98 4 129.96 4 132 C-2.13488602 125.28083912 -2.43796175 116.43021593 -2.37231445 107.80810547 C-2.37596512 106.72563538 -2.37961578 105.64316528 -2.38337708 104.52789307 C-2.39143807 100.97416156 -2.37791087 97.42089237 -2.36328125 93.8671875 C-2.36276219 91.38575236 -2.36328168 88.90431681 -2.36479187 86.42288208 C-2.36470235 81.23319323 -2.35431265 76.04366038 -2.33618164 70.85400391 C-2.3134716 64.20841573 -2.3129569 57.56318578 -2.31969929 50.91757011 C-2.32304322 45.79771919 -2.31640152 40.67791989 -2.30657005 35.55807877 C-2.30272689 33.10771073 -2.30156617 30.65733694 -2.3031559 28.2069664 C-2.30352748 24.782235 -2.29088054 21.35779327 -2.2746582 17.93310547 C-2.27713562 16.92512909 -2.27961304 15.91715271 -2.28216553 14.87863159 C-2.24178945 9.5272953 -1.76628223 5.06194752 0 0 Z " fill="#79B0C0" transform="translate(52,293)"/>
<path d="M0 0 C0.33 0 0.66 0 1 0 C1.08636719 0.67546875 1.17273438 1.3509375 1.26171875 2.046875 C2.12953342 7.706249 2.12953342 7.706249 5.0625 12.5 C8.92453459 14.47210277 12.74219318 15.29500366 17 16 C16.34 16.474375 15.68 16.94875 15 17.4375 C14.01 18.2109375 14.01 18.2109375 13 19 C13 19.33 13 19.66 13 20 C14.42892578 20.09087891 14.42892578 20.09087891 15.88671875 20.18359375 C17.14097656 20.26738281 18.39523437 20.35117187 19.6875 20.4375 C20.92886719 20.51871094 22.17023438 20.59992188 23.44921875 20.68359375 C26.38180337 20.94491317 29.13441617 21.34798379 32 22 C32 22.33 32 22.66 32 23 C17.15 23 2.3 23 -13 23 C-7.1447206 20.0723603 -2.37753338 19.60005365 4 21 C4.33 19.02 4.66 17.04 5 15 C4.34 15 3.68 15 3 15 C-0.16727335 9.8531808 -0.35050464 5.841744 0 0 Z " fill="#77B6C9" transform="translate(341,322)"/>
<path d="M0 0 C1.26085419 0.00015106 2.52170837 0.00030212 3.82077026 0.00045776 C5.18145916 0.01066861 6.54214641 0.02110056 7.90283203 0.03173828 C9.30673012 0.03547254 10.71063083 0.03831756 12.11453247 0.04031372 C15.7937755 0.04791774 19.47285842 0.06753808 23.15203857 0.08972168 C26.9126977 0.11025007 30.67338292 0.11933034 34.43408203 0.12939453 C41.8013422 0.15078735 49.16847085 0.1848838 56.53564453 0.22705078 C57.03064453 1.21705078 57.03064453 1.21705078 57.53564453 2.22705078 C56.71767395 2.23069641 55.89970337 2.23434204 55.0569458 2.23809814 C47.34666524 2.2759717 39.63686822 2.33281639 31.92689896 2.41095352 C27.96313068 2.45045587 23.99958547 2.48263053 20.03564453 2.49804688 C16.20985635 2.51319575 12.38468127 2.54760853 8.55916595 2.5953598 C7.09999675 2.61019211 5.64074001 2.61809286 4.18149567 2.61893463 C2.13644624 2.62130073 0.09309623 2.6483456 -1.95166016 2.68115234 C-3.69706085 2.69447601 -3.69706085 2.69447601 -5.47772217 2.70806885 C-9.06608616 3.33161245 -10.11683102 4.54074621 -12.46435547 7.22705078 C-13.12435547 7.22705078 -13.78435547 7.22705078 -14.46435547 7.22705078 C-13.83935547 4.85205078 -13.83935547 4.85205078 -12.46435547 2.22705078 C-8.22764115 0.41055849 -4.57891663 -0.01838922 0 0 Z " fill="#70AABD" transform="translate(327.46435546875,131.77294921875)"/>
<path d="M0 0 C0.33 0 0.66 0 1 0 C1.0468016 14.07365283 1.08189562 28.14729352 1.10362434 42.2210083 C1.11405392 48.75625308 1.12819819 55.2914455 1.15087891 61.82666016 C1.17263652 68.1354931 1.18457485 74.44427574 1.18975449 80.75314331 C1.19344498 83.15803824 1.20065157 85.56293048 1.21146011 87.96780396 C1.22601361 91.34057529 1.2279763 94.71313973 1.22705078 98.0859375 C1.23424133 99.07640579 1.24143188 100.06687408 1.24884033 101.08735657 C1.23209666 106.73981943 0.61163452 111.5758318 -1 117 C-1.33 117 -1.66 117 -2 117 C-2.02736707 115.60427948 -2.04655989 114.20839779 -2.0625 112.8125 C-2.07990234 111.64654297 -2.07990234 111.64654297 -2.09765625 110.45703125 C-2 108 -2 108 -1.50672913 105.97285461 C-0.76891018 101.64425311 -0.8213737 97.36124961 -0.79467773 92.97729492 C-0.78477814 91.97194702 -0.77487854 90.96659912 -0.76467896 89.93078613 C-0.73313935 86.61403747 -0.70833629 83.2972745 -0.68359375 79.98046875 C-0.66301772 77.67832572 -0.64202107 75.37618642 -0.62062073 73.0740509 C-0.56546715 67.01932798 -0.51602824 60.96457135 -0.46777344 54.90979004 C-0.4175094 48.7295431 -0.36184893 42.54934503 -0.30664062 36.36914062 C-0.19914116 24.24613552 -0.09767794 12.12308794 0 0 Z " fill="#77A7BA" transform="translate(237,89)"/>
<path d="M0 0 C1.5625 1.0625 1.5625 1.0625 3 3 C2.83527551 7.52992341 2.25620319 10.74379681 -1 14 C-4.25371545 15.08457182 -6.6089932 15.12046857 -10.03198242 15.11352539 C-11.27304245 15.11344986 -12.51410248 15.11337433 -13.79277039 15.11329651 C-15.14700358 15.10818991 -16.50123637 15.10297391 -17.85546875 15.09765625 C-19.24123585 15.09579083 -20.62700361 15.09436751 -22.01277161 15.09336853 C-25.6574791 15.0895531 -29.30214665 15.07973113 -32.94683838 15.06866455 C-36.66702738 15.0584295 -40.38722285 15.05386642 -44.10742188 15.04882812 C-51.40496611 15.03810798 -58.70247746 15.02104325 -66 15 C-66 14.67 -66 14.34 -66 14 C-65.24244919 13.99635437 -64.48489838 13.99270874 -63.70439148 13.98895264 C-56.56770734 13.95109739 -49.43154666 13.89427408 -42.29519939 13.81609726 C-38.62622466 13.77657492 -34.95749162 13.74441026 -31.28833008 13.72900391 C-27.74781155 13.71386791 -24.20795727 13.67947887 -20.66773415 13.63169098 C-18.65869347 13.60961645 -16.64946564 13.60752363 -14.64030457 13.60565186 C-13.41926529 13.58593323 -12.19822601 13.5662146 -10.94018555 13.54589844 C-9.86318893 13.53701599 -8.78619232 13.52813354 -7.67655945 13.51898193 C-4.85734539 13.25972641 -4.85734539 13.25972641 -3.2537384 10.96588135 C-2.84000473 10.3171405 -2.42627106 9.66839966 -2 9 C-1.34 9 -0.68 9 0 9 C-0.185625 8.071875 -0.37125 7.14375 -0.5625 6.1875 C-1 3 -1 3 0 0 Z " fill="#4A7585" transform="translate(388,138)"/>
<path d="M0 0 C0.33 0 0.66 0 1 0 C1 7.26 1 14.52 1 22 C-6.26 22 -13.52 22 -21 22 C-21.66 23.32 -22.32 24.64 -23 26 C-23.97581759 27.35113205 -24.97029741 28.68946944 -26 30 C-25.67 30.33 -25.34 30.66 -25 31 C-24.95936168 32.66617115 -24.957279 34.33388095 -25 36 C-24.34 36.33 -23.68 36.66 -23 37 C-23.33 37.99 -23.66 38.98 -24 40 C-26.88046538 37.67704405 -27.93539185 36.2180525 -29 32.625 C-29 28.1362248 -27.84773815 26.40146502 -25 23 C-21.69711664 20.79807776 -20.72537273 20.76040032 -16.89453125 20.8046875 C-15.91162109 20.81113281 -14.92871094 20.81757813 -13.91601562 20.82421875 C-12.37977539 20.84935547 -12.37977539 20.84935547 -10.8125 20.875 C-9.77673828 20.88402344 -8.74097656 20.89304688 -7.67382812 20.90234375 C-5.11578694 20.92592017 -2.55786447 20.96179124 0 21 C0 14.07 0 7.14 0 0 Z " fill="#538190" transform="translate(134,112)"/>
<path d="M0 0 C8.59078223 -0.7809802 16.82822361 2.41584256 24 7 C23.34 7.66 22.68 8.32 22 9 C22 8.34 22 7.68 22 7 C21.175 7.165 20.35 7.33 19.5 7.5 C15.58727683 8.05896045 11.94816827 8.06807187 8 8 C7.979375 7.401875 7.95875 6.80375 7.9375 6.1875 C7.09543384 3.56685398 7.09543384 3.56685398 3.4375 2.25 C2.303125 1.8375 1.16875 1.425 0 1 C0 0.67 0 0.34 0 0 Z " fill="#68A0B2" transform="translate(192,262)"/>
<path d="M0 0 C1 2 1 2 0.546875 3.83984375 C0.28390625 4.53207031 0.0209375 5.22429687 -0.25 5.9375 C-0.50265625 6.62714844 -0.7553125 7.31679688 -1.015625 8.02734375 C-2 10 -2 10 -3.609375 11.50390625 C-5.45387852 13.14787183 -5.45387852 13.14787183 -5 17 C-5.45375 17.721875 -5.9075 18.44375 -6.375 19.1875 C-8.55152064 22.95455495 -9.2139199 26.75516747 -10 31 C-10.33 31 -10.66 31 -11 31 C-11.91622228 19.08911034 -6.67335041 9.5226461 0 0 Z " fill="#6492A1" transform="translate(272,278)"/>
<path d="M0 0 C5.02380113 1.56993785 9.0469983 4.60115742 13 8 C13.33 8.66 13.66 9.32 14 10 C13.01 10.33 12.02 10.66 11 11 C10.34 10.34 9.68 9.68 9 9 C9 8.01 9 7.02 9 6 C8.01 6.33 7.02 6.66 6 7 C6.33 7.99 6.66 8.98 7 10 C6.01 10 5.02 10 4 10 C3.67 9.34 3.34 8.68 3 8 C2.34 8.66 1.68 9.32 1 10 C0.22157062 6.59437148 -0.09978121 3.49234244 0 0 Z " fill="#6BAABE" transform="translate(209,53)"/>
<path d="M0 0 C1.32 0.33 2.64 0.66 4 1 C3.360625 1.61875 2.72125 2.2375 2.0625 2.875 C-0.89240027 5.9194427 -1.14215781 7.65688525 -1.31640625 11.7890625 C-1.35830078 12.73007813 -1.40019531 13.67109375 -1.44335938 14.640625 C-1.48267578 15.62546875 -1.52199219 16.6103125 -1.5625 17.625 C-1.60568359 18.61757812 -1.64886719 19.61015625 -1.69335938 20.6328125 C-1.79960947 23.08837033 -1.90032455 25.54416651 -2 28 C-7.61 28 -13.22 28 -19 28 C-19 27.67 -19 27.34 -19 27 C-18.08476563 26.96261719 -17.16953125 26.92523438 -16.2265625 26.88671875 C-15.03804688 26.82097656 -13.84953125 26.75523437 -12.625 26.6875 C-11.44164063 26.62949219 -10.25828125 26.57148438 -9.0390625 26.51171875 C-8.03617188 26.34285156 -7.03328125 26.17398438 -6 26 C-3.94471457 22.91707185 -3.74851561 22.18851449 -3.69140625 18.69140625 C-3.66626953 17.86189453 -3.64113281 17.03238281 -3.61523438 16.17773438 C-3.58015836 14.43822398 -3.54889068 12.69863251 -3.52148438 10.95898438 C-3.27255626 3.13292719 -3.27255626 3.13292719 0 0 Z " fill="#7CB9CC" transform="translate(136,105)"/>
<path d="M0 0 C0.33 0.66 0.66 1.32 1 2 C0.67 2.66 0.34 3.32 0 4 C0.99 4.33 1.98 4.66 3 5 C2.34 5 1.68 5 1 5 C1.14046255 7.95867918 1.28712224 10.91682264 1.4375 13.875 C1.47681641 14.71675781 1.51613281 15.55851562 1.55664062 16.42578125 C1.59853516 17.23144531 1.64042969 18.03710938 1.68359375 18.8671875 C1.72025146 19.61081543 1.75690918 20.35444336 1.79467773 21.12060547 C1.89955865 23.08864312 1.89955865 23.08864312 3 25 C5.71446979 25.31241455 8.33909361 25.51336592 11.0625 25.625 C11.82111328 25.66367188 12.57972656 25.70234375 13.36132812 25.7421875 C15.24047195 25.83673562 17.12020336 25.91946756 19 26 C19 26.33 19 26.66 19 27 C12.73 27 6.46 27 0 27 C-0.06058594 25.45828125 -0.12117187 23.9165625 -0.18359375 22.328125 C-0.26801253 20.3020743 -0.35265986 18.2760331 -0.4375 16.25 C-0.47681641 15.23421875 -0.51613281 14.2184375 -0.55664062 13.171875 C-0.59853516 12.1921875 -0.64042969 11.2125 -0.68359375 10.203125 C-0.72025146 9.30239258 -0.75690918 8.40166016 -0.79467773 7.47363281 C-0.98306407 5.20403661 -1.37366501 3.18437113 -2 1 C-1.34 0.67 -0.68 0.34 0 0 Z " fill="#77B3C5" transform="translate(154,107)"/>
<path d="M0 0 C2.0625 0.4375 2.0625 0.4375 4 1 C2.58994275 2.15395711 1.17166542 3.29787466 -0.25 4.4375 C-1.43335938 5.39462891 -1.43335938 5.39462891 -2.640625 6.37109375 C-4.86247492 7.90505305 -6.36743482 8.57130246 -9 9 C-9.33 7.02 -9.66 5.04 -10 3 C-8.68 3.33 -7.36 3.66 -6 4 C-6 3.34 -6 2.68 -6 2 C-4.7934375 1.7834375 -4.7934375 1.7834375 -3.5625 1.5625 C-1.07896294 1.25864751 -1.07896294 1.25864751 0 0 Z " fill="#6FADC0" transform="translate(219,224)"/>
<path d="M0 0 C0.66 0 1.32 0 2 0 C0.69634262 4.54936107 -1.06615087 7.8876041 -3.875 11.6875 C-4.55304688 12.61949219 -5.23109375 13.55148437 -5.9296875 14.51171875 C-7.81425498 16.77675551 -9.56535373 18.36780441 -12 20 C-12 18.68 -12 17.36 -12 16 C-11.01 16 -10.02 16 -9 16 C-9 15.01 -9 14.02 -9 13 C-8.34 13 -7.68 13 -7 13 C-6.67 11.35 -6.34 9.7 -6 8 C-5.01 8 -4.02 8 -3 8 C-2.690625 6.865625 -2.38125 5.73125 -2.0625 4.5625 C-1 1 -1 1 0 0 Z " fill="#5F8E9C" transform="translate(444,419)"/>
<path d="M0 0 C0.56847656 0.21914063 1.13695313 0.43828125 1.72265625 0.6640625 C-0.93371029 3.60503974 -2.51198599 4.72272306 -6.27734375 5.6640625 C-7.20546875 6.6540625 -7.20546875 6.6540625 -8.15234375 7.6640625 C-10.79953301 10.15553475 -12.71997755 10.34066557 -16.27734375 10.6640625 C-5.77721035 -0.85221285 -5.77721035 -0.85221285 0 0 Z " fill="#5C8C9B" transform="translate(79.27734375,53.3359375)"/>
<path d="M0 0 C1.68359375 1.51953125 1.68359375 1.51953125 3 3 C2.41992188 3.04898438 1.83984375 3.09796875 1.2421875 3.1484375 C-3.43923092 3.59649405 -7.57485459 4.298021 -12 6 C-11.05275873 3.63189682 -10.34708866 2.24792047 -8.25 0.75 C-5.32449103 -0.22516966 -3.06443238 -0.32600345 0 0 Z " fill="#4C7687" transform="translate(147,105)"/>
<path d="M0 0 C2.31 0.33 4.62 0.66 7 1 C-0.2 7 -0.2 7 -5 7 C-5.33 6.01 -5.66 5.02 -6 4 C-5.01 3.67 -4.02 3.34 -3 3 C-2.34 3.33 -1.68 3.66 -1 4 C-0.67 2.68 -0.34 1.36 0 0 Z " fill="#639AA8" transform="translate(211,440)"/>
<path d="M0 0 C4.62 0 9.24 0 14 0 C14 6.6 14 13.2 14 20 C13.67 20 13.34 20 13 20 C13 14.39 13 8.78 13 3 C12.34 3 11.68 3 11 3 C11 2.34 11 1.68 11 1 C7.37 1 3.74 1 0 1 C0 0.67 0 0.34 0 0 Z " fill="#78B3C4" transform="translate(120,153)"/>
<path d="M0 0 C0.66 0.33 1.32 0.66 2 1 C0.6875 3.5 0.6875 3.5 -1 6 C-1.99 6 -2.98 6 -4 6 C-4.33 6.99 -4.66 7.98 -5 9 C-6.65 9.33 -8.3 9.66 -10 10 C-3.84965831 2.51708428 -3.84965831 2.51708428 0 0 Z " fill="#6594A6" transform="translate(70,270)"/>
<path d="M0 0 C0 3.79952223 -0.7271683 4.9458824 -3 8 C-5.56750989 10.14718776 -8.24758439 12.09749895 -11 14 C-11.66 13.67 -12.32 13.34 -13 13 C-8.71 8.71 -4.42 4.42 0 0 Z " fill="#73AEBF" transform="translate(142,371)"/>
<path d="M0 0 C0 3 0 3 -1.6796875 5.04296875 C-2.76636719 6.10451172 -2.76636719 6.10451172 -3.875 7.1875 C-4.59429687 7.90292969 -5.31359375 8.61835938 -6.0546875 9.35546875 C-8 11 -8 11 -10 11 C-10.33 12.32 -10.66 13.64 -11 15 C-12.65 15.33 -14.3 15.66 -16 16 C-12.63699159 11.69114547 -9.03918174 8.14405459 -4.8671875 4.61328125 C-3.16296232 3.14080217 -1.56975784 1.61363306 0 0 Z " fill="#4C7585" transform="translate(159,327)"/>
<path d="M0 0 C1.32 0.33 2.64 0.66 4 1 C-5.22551253 7.51936219 -5.22551253 7.51936219 -11 9 C-11 8.01 -11 7.02 -11 6 C-10.28972656 5.81824219 -9.57945312 5.63648438 -8.84765625 5.44921875 C-7.46900391 5.07216797 -7.46900391 5.07216797 -6.0625 4.6875 C-5.14597656 4.44386719 -4.22945313 4.20023438 -3.28515625 3.94921875 C-2.53105469 3.63597656 -1.77695312 3.32273438 -1 3 C-0.67 2.01 -0.34 1.02 0 0 Z " fill="#5F8E9E" transform="translate(428,226)"/>
<path d="M0 0 C0.66 0 1.32 0 2 0 C2.40214229 6.16618181 0.96818336 11.17745757 -1 17 C-2.05078125 15.17578125 -2.05078125 15.17578125 -3 13 C-2.1875 10.1875 -2.1875 10.1875 -1 7 C-0.62468554 4.67305036 -0.28082798 2.34023315 0 0 Z " fill="#5D8996" transform="translate(447,192)"/>
<path d="M0 0 C-0.55429687 0.26554687 -1.10859375 0.53109375 -1.6796875 0.8046875 C-2.76636719 1.33449219 -2.76636719 1.33449219 -3.875 1.875 C-4.59429687 2.22304688 -5.31359375 2.57109375 -6.0546875 2.9296875 C-8.15135019 3.96557543 -8.15135019 3.96557543 -10 6 C-12.32275177 6.40047444 -14.65739357 6.7397104 -17 7 C-13.00897473 2.14136054 -6.32919246 -2.22960189 0 0 Z " fill="#517D88" transform="translate(297,52)"/>
<path d="M0 0 C0.598125 0.185625 1.19625 0.37125 1.8125 0.5625 C4.16408762 1.22093687 4.16408762 1.22093687 7 0 C6.67 3.3 6.34 6.6 6 10 C3.36335259 7.36335259 1.744776 5.24029829 0 2 C0 1.34 0 0.68 0 0 Z " fill="#5E95A5" transform="translate(54,209)"/>
<path d="M0 0 C3.18706942 1.43561686 5.62169105 3.20266329 8.25 5.5 C8.95640625 6.1084375 9.6628125 6.716875 10.390625 7.34375 C12 9 12 9 12 11 C11.01 11 10.02 11 9 11 C9 10.01 9 9.02 9 8 C8.443125 7.938125 7.88625 7.87625 7.3125 7.8125 C4.00931958 6.6519231 2.28105267 4.59786554 0 2 C0 1.34 0 0.68 0 0 Z " fill="#4F7881" transform="translate(427,57)"/>
<path d="M0 0 C3.33633368 2.99119571 5.24527707 5.87640111 7 10 C7 10.99 7 11.98 7 13 C6.34 13 5.68 13 5 13 C5 11.68 5 10.36 5 9 C4.34 9 3.68 9 3 9 C2.67 8.34 2.34 7.68 2 7 C1.01 6.67 0.02 6.34 -1 6 C-0.67 4.02 -0.34 2.04 0 0 Z " fill="#5D8B9D" transform="translate(228,281)"/>
<path d="M0 0 C-2.91707899 2.91707899 -6.0522314 3.88789821 -10.171875 4.125 C-12.11503011 4.125 -14.05799913 4.06696555 -16 4 C-15.34 3.01 -14.68 2.02 -14 1 C-9.28508449 0.13559882 -4.79755596 -0.1199389 0 0 Z " fill="#6898A8" transform="translate(210,233)"/>
<path d="M0 0 C0.33 0 0.66 0 1 0 C1.19355213 7.65606218 1.3479743 14.66258031 -1 22 C-1.33 22 -1.66 22 -2 22 C-2.25515919 14.47280398 -1.28297723 7.41148455 0 0 Z " fill="#6794A5" transform="translate(237,184)"/>
<path d="M0 0 C2.97 0.495 2.97 0.495 6 1 C6 1.66 6 2.32 6 3 C6.886875 3.144375 7.77375 3.28875 8.6875 3.4375 C11.47117646 3.91019978 14.23483757 4.43070185 17 5 C16.67 5.66 16.34 6.32 16 7 C9.68368172 6.59683075 5.35006016 4.28767869 0 1 C0 0.67 0 0.34 0 0 Z " fill="#5B8898" transform="translate(283,442)"/>
<path d="M0 0 C0 0.33 0 0.66 0 1 C-11.14925373 3.60402071 -11.14925373 3.60402071 -16 4 C-16.66 3.34 -17.32 2.68 -18 2 C-11.92972642 -0.1583195 -6.40629424 -0.20852314 0 0 Z " fill="#6496A3" transform="translate(100,262)"/>
<path d="M0 0 C4.58660699 5.06108357 7 10.17508752 7 17 C6.34 17 5.68 17 5 17 C4.731875 15.783125 4.46375 14.56625 4.1875 13.3125 C3.31391525 9.74902838 1.91510104 7.13380171 0 4 C0 2.68 0 1.36 0 0 Z " fill="#527B86" transform="translate(230,71)"/>
<path d="M0 0 C1 2 1 2 0.6171875 3.83984375 C-0.70732438 7.5833326 -1.41984236 9.56825478 -4.6875 12 C-5.450625 12.33 -6.21375 12.66 -7 13 C-5.58832253 7.73829306 -3.25149768 4.27828642 0 0 Z " fill="#5C8896" transform="translate(272,278)"/>
<path d="M0 0 C1.485 0.99 1.485 0.99 3 2 C3 3.66666667 3 5.33333333 3 7 C3.99 7.66 4.98 8.32 6 9 C6 9.99 6 10.98 6 12 C2.83884224 10.63016497 2.0072908 10.0109362 0 7 C-0.07905064 4.66800612 -0.08798769 2.33167378 0 0 Z " fill="#477482" transform="translate(314,140)"/>
<path d="M0 0 C2.875 0.1875 2.875 0.1875 6 1 C7.25 3.5 7.25 3.5 8 6 C8.66 6.33 9.32 6.66 10 7 C9.67 7.66 9.34 8.32 9 9 C7.68412059 7.87895467 6.37239647 6.75303035 5.0625 5.625 C4.33160156 4.99851562 3.60070312 4.37203125 2.84765625 3.7265625 C1 2 1 2 0 0 Z " fill="#548090" transform="translate(271,432)"/>
<path d="M0 0 C1.2065625 0.9590625 1.2065625 0.9590625 2.4375 1.9375 C6.35851307 4.59852326 10.36642801 4.79406347 15 5 C15 5.33 15 5.66 15 6 C11.04 6 7.08 6 3 6 C2.34 4.68 1.68 3.36 1 2 C0.34 1.67 -0.32 1.34 -1 1 C-0.67 0.67 -0.34 0.34 0 0 Z " fill="#7AB7CB" transform="translate(321,360)"/>
<path d="M0 0 C0.33 0 0.66 0 1 0 C1.09796875 0.66386719 1.1959375 1.32773437 1.296875 2.01171875 C2.20474663 7.37285726 3.02036413 11.02036413 7 15 C5.68 15 4.36 15 3 15 C-0.16727335 9.8531808 -0.35050464 5.841744 0 0 Z " fill="#76B1C4" transform="translate(341,322)"/>
<path d="M0 0 C0.94875 0.04125 1.8975 0.0825 2.875 0.125 C1.48923347 2.89653305 -0.46631141 3.60574938 -3.125 5.125 C-4.115 5.785 -5.105 6.445 -6.125 7.125 C-5.03177966 0.20127119 -5.03177966 0.20127119 0 0 Z " fill="#75B2C5" transform="translate(160.125,324.875)"/>
<path d="M0 0 C0 0.66 0 1.32 0 2 C-1.57914015 2.53341184 -3.16354387 3.05125763 -4.75 3.5625 C-5.63171875 3.85253906 -6.5134375 4.14257812 -7.421875 4.44140625 C-10.07834316 5.01697435 -11.47031106 4.89248371 -14 4 C-12.42032193 3.32471777 -10.83608097 2.66010306 -9.25 2 C-8.36828125 1.62875 -7.4865625 1.2575 -6.578125 0.875 C-4 0 -4 0 0 0 Z " fill="#598694" transform="translate(300,263)"/>
<path d="M0 0 C3 1 6 2 9 3 C8.01 3.99 7.02 4.98 6 6 C3.37812506 4.95125002 2.20628639 4.35068687 0.75 1.875 C0.5025 1.25625 0.255 0.6375 0 0 Z " fill="#75ADC0" transform="translate(139,336)"/>
<path d="M0 0 C0 0.66 0 1.32 0 2 C-8.42857143 3.28571429 -8.42857143 3.28571429 -13 2 C-13 1.67 -13 1.34 -13 1 C-8.62426048 0.40667939 -4.42471556 -0.13827236 0 0 Z " fill="#6CA2B1" transform="translate(416,234)"/>
<path d="M0 0 C0.66 0 1.32 0 2 0 C0.63016497 3.16115776 0.0109362 3.9927092 -3 6 C-5.33199388 6.07905064 -7.66832622 6.08798769 -10 6 C-10 5.67 -10 5.34 -10 5 C-8.906875 4.731875 -7.81375 4.46375 -6.6875 4.1875 C-3.26833673 3.08641352 -2.22408019 2.57525074 0 0 Z " fill="#497887" transform="translate(150,176)"/>
<path d="M0 0 C0.66 0.66 1.32 1.32 2 2 C-0.46687301 5.70030952 -1.75199978 5.95803768 -6 7 C-8.33212027 7.07522969 -10.6685311 7.09325876 -13 7 C-13 6.67 -13 6.34 -13 6 C-12.39671875 5.90203125 -11.7934375 5.8040625 -11.171875 5.703125 C-6.29421718 4.79053096 -3.16176612 4.12404277 0 0 Z " fill="#78B5C8" transform="translate(181,148)"/>
<path d="M0 0 C2.51699845 2.51699845 3.10964078 4.57554146 4 8 C3.625 10.375 3.625 10.375 3 12 C2.67 10.68 2.34 9.36 2 8 C1.34 8 0.68 8 0 8 C0 5.36 0 2.72 0 0 Z " fill="#5A8795" transform="translate(444,76)"/>
<path d="M0 0 C2.64 1.98 5.28 3.96 8 6 C6.68 6.33 5.36 6.66 4 7 C1.03460313 4.91323924 0.92341871 3.69367485 0 0 Z " fill="#588494" transform="translate(217,270)"/>
<path d="M0 0 C3.375 0.6875 3.375 0.6875 7 2 C8.4375 4.625 8.4375 4.625 9 7 C4.58110387 5.64978174 2.65654657 3.73884332 0 0 Z " fill="#5B8695" transform="translate(276,224)"/>
<path d="M0 0 C2.31 0 4.62 0 7 0 C6.01 0.33 5.02 0.66 4 1 C2.90833725 2.93330603 2.90833725 2.93330603 2 5 C1.34 5.66 0.68 6.32 0 7 C0 4.69 0 2.38 0 0 Z " fill="#7CB9CB" transform="translate(154,154)"/>
<path d="M0 0 C4.95 0.99 4.95 0.99 10 2 C10.33 3.32 10.66 4.64 11 6 C6.95743617 4.77782954 3.50711041 3.37245704 0 1 C0 0.67 0 0.34 0 0 Z " fill="#598795" transform="translate(72,442)"/>
<path d="M0 0 C3.875 3.75 3.875 3.75 5 6 C5.99 6.33 6.98 6.66 8 7 C8 7.66 8 8.32 8 9 C4.11980141 7.74155722 2.0588158 6.57583797 0 3 C0 2.01 0 1.02 0 0 Z " fill="#4C7889" transform="translate(114,377)"/>
<path d="M0 0 C2 3 2 3 1.7578125 5.04296875 C1.171875 7.02864583 0.5859375 9.01432292 0 11 C-0.66 11 -1.32 11 -2 11 C-1.125 3.375 -1.125 3.375 0 0 Z " fill="#53808E" transform="translate(52,293)"/>
<path d="M0 0 C1.4835001 0.42257276 2.96176424 0.86356322 4.4375 1.3125 C5.67306641 1.67794922 5.67306641 1.67794922 6.93359375 2.05078125 C7.61550781 2.36402344 8.29742187 2.67726562 9 3 C9.33 3.99 9.66 4.98 10 6 C5.56909529 4.79157144 3.01887244 3.48331435 0 0 Z " fill="#5B8996" transform="translate(68,227)"/>
<path d="M0 0 C-1.32 1.32 -2.64 2.64 -4 4 C-4.99 3.67 -5.98 3.34 -7 3 C-6.67 2.01 -6.34 1.02 -6 0 C-3.50907189 -1.24546405 -2.58919267 -0.7767578 0 0 Z " fill="#6A9DAF" transform="translate(81,54)"/>
<path d="M0 0 C0 0.33 0 0.66 0 1 C-0.969375 1.309375 -1.93875 1.61875 -2.9375 1.9375 C-5.84065792 2.69523342 -5.84065792 2.69523342 -7 4 C-8.66617115 4.04063832 -10.33388095 4.042721 -12 4 C-8.35616205 0.00912986 -5.26350451 -0.11696677 0 0 Z " fill="#4E7A8A" transform="translate(358,374)"/>
<path d="M0 0 C3.36720387 1.39332574 4.9859524 2.9789286 7 6 C2.25 5.25 2.25 5.25 0 3 C0 2.01 0 1.02 0 0 Z " fill="#518090" transform="translate(430,272)"/>
<path d="M0 0 C-0.8125 1.9375 -0.8125 1.9375 -2 4 C-2.99 4.33 -3.98 4.66 -5 5 C-5.66 4.34 -6.32 3.68 -7 3 C-3.375 0 -3.375 0 0 0 Z " fill="#507787" transform="translate(322,134)"/>
<path d="M0 0 C0 3 0 3 -2 5.1875 C-2.66 5.785625 -3.32 6.38375 -4 7 C-4.66 6.67 -5.32 6.34 -6 6 C-2.25 1.125 -2.25 1.125 0 0 Z " fill="#4E7787" transform="translate(349,312)"/>
<path d="M0 0 C1.32 0.33 2.64 0.66 4 1 C1.03 3.475 1.03 3.475 -2 6 C-2.66 5.01 -3.32 4.02 -4 3 C-3.01 3 -2.02 3 -1 3 C-0.67 2.01 -0.34 1.02 0 0 Z " fill="#6393A3" transform="translate(219,224)"/>
<path d="M0 0 C2.0625 1.625 2.0625 1.625 4 4 C3.75 7.25 3.75 7.25 3 10 C0.70366176 6.55549263 0.45983515 4.06187717 0 0 Z " fill="#55848E" transform="translate(50,196)"/>
<path d="M0 0 C0.33 0.99 0.66 1.98 1 3 C-0.4375 5.1875 -0.4375 5.1875 -2 7 C-2.99 6.67 -3.98 6.34 -5 6 C-4.34 5.01 -3.68 4.02 -3 3 C-2.34 3 -1.68 3 -1 3 C-0.67 2.01 -0.34 1.02 0 0 Z " fill="#75B3C2" transform="translate(172,341)"/>
<path d="M0 0 C1.74627478 2.61941217 2.38722388 4.03824877 3 7 C2.01 7.66 1.02 8.32 0 9 C-1.125 3.375 -1.125 3.375 0 0 Z " fill="#6297A8" transform="translate(263,81)"/>
<path d="M0 0 C3.26460973 1.80412643 4.88929795 2.83394693 7 6 C6.01 6.33 5.02 6.66 4 7 C3.34 6.34 2.68 5.68 2 5 C2 4.01 2 3.02 2 2 C1.34 2 0.68 2 0 2 C0 1.34 0 0.68 0 0 Z " fill="#6597A7" transform="translate(216,57)"/>
<path d="M0 0 C1.32 0.33 2.64 0.66 4 1 C4.33 2.65 4.66 4.3 5 6 C4.01 5.67 3.02 5.34 2 5 C0.8125 2.4375 0.8125 2.4375 0 0 Z " fill="#6293A4" transform="translate(267,425)"/>
<path d="M0 0 C0.66 0 1.32 0 2 0 C2 0.99 2 1.98 2 3 C2.66 3 3.32 3 4 3 C4 4.98 4 6.96 4 9 C1.49701566 6.06171403 0.53069061 3.82097239 0 0 Z " fill="#5E8C99" transform="translate(52,416)"/>
<path d="M0 0 C0.66 0.66 1.32 1.32 2 2 C0.68 3.32 -0.64 4.64 -2 6 C-2.66 5.67 -3.32 5.34 -4 5 C-2.25 1.125 -2.25 1.125 0 0 Z " fill="#4B7786" transform="translate(365,393)"/>
<path d="M0 0 C0.66 0.33 1.32 0.66 2 1 C0.35 2.98 -1.3 4.96 -3 7 C-3.33 5.68 -3.66 4.36 -4 3 C-2.68 2.01 -1.36 1.02 0 0 Z " fill="#76B2C4" transform="translate(119,364)"/>
<path d="M0 0 C1.32 0.66 2.64 1.32 4 2 C3.38125 2.28875 2.7625 2.5775 2.125 2.875 C-0.13325765 3.93720042 -0.13325765 3.93720042 -2 6 C-2.66 5.34 -3.32 4.68 -4 4 C-2.68 2.68 -1.36 1.36 0 0 Z " fill="#4F7A8B" transform="translate(325,345)"/>
<path d="M0 0 C0.33 1.32 0.66 2.64 1 4 C0.01 4.66 -0.98 5.32 -2 6 C-2.99 5.67 -3.98 5.34 -5 5 C-3.35 3.35 -1.7 1.7 0 0 Z " fill="#52808E" transform="translate(65,274)"/>
<path d="M0 0 C0.66 0.33 1.32 0.66 2 1 C0.515 3.475 0.515 3.475 -1 6 C-2.32 5.67 -3.64 5.34 -5 5 C-3.35 3.35 -1.7 1.7 0 0 Z " fill="#4D7582" transform="translate(278,272)"/>
<path d="" fill="#000000" transform="translate(0,0)"/>
<path d="" fill="#000000" transform="translate(0,0)"/>
<path d="" fill="#000000" transform="translate(0,0)"/>
<path d="" fill="#000000" transform="translate(0,0)"/>
<path d="" fill="#000000" transform="translate(0,0)"/>
<path d="" fill="#000000" transform="translate(0,0)"/>
<path d="" fill="#000000" transform="translate(0,0)"/>
<path d="" fill="#000000" transform="translate(0,0)"/>
<path d="" fill="#000000" transform="translate(0,0)"/>
<path d="" fill="#000000" transform="translate(0,0)"/>
<path d="" fill="#000000" transform="translate(0,0)"/>
<path d="" fill="#000000" transform="translate(0,0)"/>
<path d="" fill="#000000" transform="translate(0,0)"/>
<path d="" fill="#000000" transform="translate(0,0)"/>
<path d="" fill="#000000" transform="translate(0,0)"/>
<path d="" fill="#000000" transform="translate(0,0)"/>
<path d="" fill="#000000" transform="translate(0,0)"/>
<path d="" fill="#000000" transform="translate(0,0)"/>
<path d="" fill="#000000" transform="translate(0,0)"/>
<path d="" fill="#000000" transform="translate(0,0)"/>
<path d="" fill="#000000" transform="translate(0,0)"/>
<path d="" fill="#000000" transform="translate(0,0)"/>
<path d="" fill="#000000" transform="translate(0,0)"/>
<path d="" fill="#000000" transform="translate(0,0)"/>
<path d="" fill="#000000" transform="translate(0,0)"/>
<path d="" fill="#000000" transform="translate(0,0)"/>
<path d="" fill="#000000" transform="translate(0,0)"/>
<path d="" fill="#000000" transform="translate(0,0)"/>
<path d="" fill="#000000" transform="translate(0,0)"/>
<path d="" fill="#000000" transform="translate(0,0)"/>
<path d="" fill="#000000" transform="translate(0,0)"/>
<path d="" fill="#000000" transform="translate(0,0)"/>
<path d="" fill="#000000" transform="translate(0,0)"/>
<path d="" fill="#000000" transform="translate(0,0)"/>
<path d="" fill="#000000" transform="translate(0,0)"/>
<path d="" fill="#000000" transform="translate(0,0)"/>
<path d="" fill="#000000" transform="translate(0,0)"/>
<path d="" fill="#000000" transform="translate(0,0)"/>
<path d="" fill="#000000" transform="translate(0,0)"/>
<path d="" fill="#000000" transform="translate(0,0)"/>
<path d="" fill="#000000" transform="translate(0,0)"/>
<path d="" fill="#000000" transform="translate(0,0)"/>
<path d="" fill="#000000" transform="translate(0,0)"/>
<path d="" fill="#000000" transform="translate(0,0)"/>
<path d="" fill="#000000" transform="translate(0,0)"/>
<path d="" fill="#000000" transform="translate(0,0)"/>
<path d="" fill="#000000" transform="translate(0,0)"/>
</svg>
