<?xml version="1.0" encoding="UTF-8"?>
<svg version="1.1" xmlns="http://www.w3.org/2000/svg" width="500" height="500">
<path d="M0 0 C165 0 330 0 500 0 C500 165 500 330 500 500 C335 500 170 500 0 500 C0 335 0 170 0 0 Z " fill="#000000" transform="translate(0,0)"/>
<path d="M0 0 C0.99626404 -0.00511093 1.99252808 -0.01022186 3.01898193 -0.01548767 C6.29429223 -0.0293239 9.56939061 -0.02843103 12.84472656 -0.02612305 C15.1362516 -0.03001392 17.42777592 -0.03434939 19.71929932 -0.03910828 C24.51731709 -0.04655818 29.31526127 -0.04628859 34.11328125 -0.04101562 C40.23714657 -0.03522997 46.36070855 -0.0521364 52.48452377 -0.0753603 C57.2168349 -0.09015312 61.94907396 -0.09096167 66.68140411 -0.08785057 C68.93785451 -0.08836123 71.19430921 -0.09355066 73.450737 -0.10366249 C93.28014362 -0.18160903 109.13509154 1.14032299 124.18457031 15.46606445 C133.51758435 25.74238466 137.20368552 37.49557192 137.1394043 51.13354492 C137.14626755 52.1691153 137.1531308 53.20468567 137.16020203 54.27163696 C137.17837598 57.66601607 137.17464561 61.05992878 137.16894531 64.4543457 C137.17351181 66.83269397 137.17881878 69.21104093 137.18482971 71.58938599 C137.19374256 76.56379572 137.19135865 81.53804476 137.18139648 86.51245117 C137.16991323 92.86279369 137.19011851 99.2125796 137.21931362 105.56284904 C137.23772827 110.47188801 137.23737257 115.38079491 137.2316761 120.28985977 C137.23152351 122.63004461 137.23751588 124.97023876 137.24996758 127.31039047 C137.35718593 150.76357781 137.35718593 150.76357781 132.73535156 160.2746582 C132.33686508 161.11213593 131.9383786 161.94961365 131.52781677 162.81246948 C125.21031759 175.4603794 114.87801637 182.72219054 101.77552605 187.40641594 C96.93649651 188.78839253 92.30841424 188.84082178 87.30395508 188.80810547 C86.21947083 188.81672104 85.13498657 188.82533661 84.01763916 188.83421326 C80.46626268 188.85674133 76.91568378 188.8501582 73.36425781 188.84106445 C70.8752367 188.8463058 68.38621757 188.85258415 65.89720154 188.85984802 C60.69333516 188.87022801 55.48974265 188.86572496 50.28588867 188.85107422 C43.64064053 188.83389016 36.99625738 188.85739118 30.35110569 188.89256382 C25.21472013 188.91459815 20.07853962 188.91308162 14.94212151 188.90479851 C12.49308257 188.90398232 10.04402807 188.91078166 7.59503365 188.92556953 C-16.84502551 189.05054233 -16.84502551 189.05054233 -26.26464844 183.2746582 C-27.91400391 182.32333008 -27.91400391 182.32333008 -29.59667969 181.3527832 C-41.73398012 172.40749721 -48.76254979 161.18917211 -51.26464844 146.2746582 C-51.53740805 142.75156702 -51.55858205 139.24541627 -51.55517578 135.71289062 C-51.56189301 134.69697342 -51.56861023 133.68105621 -51.57553101 132.63435364 C-51.59441842 129.29956068 -51.59843044 125.96496996 -51.60058594 122.63012695 C-51.60701995 120.29519063 -51.61374875 117.9602551 -51.62075806 115.62532043 C-51.63270745 110.73912691 -51.63644125 105.85300397 -51.63525391 100.96679688 C-51.63505078 94.72966885 -51.66235767 88.49299675 -51.69679832 82.25597668 C-51.71911913 77.43530733 -51.72308986 72.61474686 -51.72203445 67.79403114 C-51.72438242 65.49570456 -51.73316016 63.1973746 -51.74869919 60.89909935 C-51.88987996 37.86316506 -51.88987996 37.86316506 -47.26464844 28.2746582 C-46.74644531 27.19829102 -46.22824219 26.12192383 -45.69433594 25.01293945 C-37.75922401 12.63177235 -27.00333454 4.20239175 -12.56996918 0.69622231 C-8.39505165 -0.06722693 -4.23273014 -0.01133816 0 0 Z " fill="#73BCD4" transform="translate(312.2646484375,48.725341796875)"/>
<path d="M0 0 C1.00268921 -0.00350464 2.00537842 -0.00700928 3.03845215 -0.01062012 C6.33299812 -0.01937919 9.62732707 -0.01360883 12.921875 -0.00683594 C15.22298219 -0.00818426 17.5240891 -0.01012619 19.82519531 -0.01263428 C24.64000164 -0.01557766 29.45473359 -0.01131314 34.26953125 -0.00195312 C40.42960532 0.00944086 46.58950508 0.00287719 52.74957275 -0.00909805 C57.49887395 -0.01633784 62.24813407 -0.01401897 66.99743652 -0.00884247 C69.26835145 -0.00751184 71.53927015 -0.00913306 73.81018066 -0.01380157 C76.98813707 -0.0189016 80.16581429 -0.01110765 83.34375 0 C84.27489624 -0.00404846 85.20604248 -0.00809692 86.16540527 -0.01226807 C99.65297416 0.07471243 112.85483516 4.85788578 122.671875 14.25878906 C132.76984213 25.2135534 136.97639015 37.09275015 136.96240234 51.79882812 C136.96911957 52.82435287 136.97583679 53.84987762 136.98275757 54.90647888 C137.00167368 58.27917395 137.00565865 61.65166932 137.0078125 65.02441406 C137.01424517 67.38319987 137.02097387 69.74198488 137.02798462 72.10076904 C137.03994166 77.04001718 137.04366709 81.97919545 137.04248047 86.91845703 C137.04227745 93.22399315 137.06956992 99.52907774 137.10402489 105.83450699 C137.12634592 110.70579047 137.1303164 115.57696622 137.12926102 120.44829559 C137.1316095 122.77174179 137.14039023 125.09519129 137.15592575 127.41858673 C137.27031129 146.29316136 135.58136337 162.03317596 121.671875 176.25878906 C106.57843463 188.91231238 91.85274521 189.0014311 73.03515625 188.88769531 C70.54420366 188.88852525 68.05325113 188.89098933 65.56230164 188.89500427 C60.36192182 188.89785146 55.16197527 188.88326282 49.96166992 188.85571289 C43.31397489 188.82157878 36.66747223 188.82767652 30.01974201 188.84637547 C24.88343432 188.85696808 19.74730458 188.8479878 14.61101341 188.83299065 C12.16033647 188.82782864 9.7096408 188.82826641 7.25896645 188.8345356 C3.83019953 188.84001712 0.40251979 188.8195189 -3.02612305 188.79223633 C-4.02638016 188.79876221 -5.02663727 188.80528809 -6.0572052 188.81201172 C-18.0354154 188.65085415 -28.83530132 183.19950189 -37.625 175.15722656 C-47.53491261 164.61397368 -51.80030169 151.79553835 -51.73217773 137.50756836 C-51.73904099 136.48335785 -51.74590424 135.45914734 -51.75297546 134.40390015 C-51.77114859 131.04679155 -51.76741879 127.69015464 -51.76171875 124.33300781 C-51.76628565 121.9794754 -51.77159273 119.62594433 -51.77760315 117.27241516 C-51.78651612 112.34927948 -51.78413237 107.42630616 -51.77416992 102.50317383 C-51.76269314 96.22242952 -51.78288193 89.94224853 -51.81208706 83.66157818 C-51.8305154 78.80311067 -51.83014319 73.94477645 -51.82444954 69.08628273 C-51.82429708 66.7720441 -51.83027834 64.457796 -51.84274101 62.14359093 C-51.92673975 43.987611 -50.92772562 28.88712042 -38.07421875 14.78613281 C-27.17277612 4.30464945 -14.87197346 -0.06466075 0 0 Z " fill="#73BCD4" transform="translate(101.328125,48.7412109375)"/>
<path d="M0 0 C2.35067403 -0.00269934 4.70134697 -0.00658543 7.05201721 -0.01159668 C11.96325376 -0.01747202 16.874198 -0.0089928 21.78540039 0.00976562 C28.05041786 0.03254085 34.31474919 0.01942789 40.57974148 -0.00452423 C45.42964251 -0.01904602 50.27938352 -0.01434678 55.12928963 -0.00401306 C57.4379389 -0.00136274 59.74660315 -0.00455519 62.05523491 -0.01393127 C80.90724721 -0.073703 96.02978265 1.41732627 110.62890625 14.71875 C120.51697468 25.34366968 124.33535799 38.12669624 124.31469727 52.34838867 C124.3247731 53.36792633 124.33484894 54.38746399 124.3452301 55.43789673 C124.37349341 58.77511872 124.37957594 62.11188486 124.3828125 65.44921875 C124.39246933 67.79413531 124.40256295 70.13905011 124.41307068 72.48396301 C124.43097863 77.38852117 124.43659727 82.29292126 124.43481445 87.19750977 C124.43451009 93.44338942 124.47544167 99.68824211 124.52713108 105.9338789 C124.56069576 110.77531981 124.56656585 115.61651784 124.56498528 120.45806313 C124.56849584 122.75868578 124.581597 125.05931675 124.60498238 127.35982323 C124.76445126 144.66812637 123.61008511 160.41840839 110.87890625 173.53125 C110.30785156 174.14097656 109.73679688 174.75070312 109.1484375 175.37890625 C98.17683123 186.02300188 85.38651285 188.68377143 70.67431641 188.67651367 C69.18973183 188.68155159 69.18973183 188.68155159 67.67515564 188.68669128 C64.42274703 188.6961439 61.17039021 188.69814143 57.91796875 188.69921875 C55.64407328 188.70243495 53.37017801 188.70579929 51.09628296 188.70930481 C46.33697022 188.71528161 41.5776756 188.71714617 36.81835938 188.71655273 C30.73696472 188.71645112 24.65568683 188.73010936 18.57431984 188.74732494 C13.87984692 188.75847306 9.185402 188.76047109 4.49091721 188.75994301 C2.2495623 188.76111865 0.00820656 188.76551694 -2.23313522 188.77327538 C-5.37474379 188.78313342 -8.51610177 188.78017445 -11.65771484 188.77416992 C-12.57231979 188.77978943 -13.48692474 188.78540894 -14.429245 188.79119873 C-29.20493946 188.71986655 -40.13767721 184.09395445 -50.8984375 173.87890625 C-59.03694331 165.28269888 -64.20195234 153.89256635 -64.26826477 141.94186401 C-64.27542007 141.05057297 -64.28257538 140.15928192 -64.28994751 139.24098206 C-64.29263641 138.27571091 -64.29532532 137.31043976 -64.2980957 136.31591797 C-64.3046669 135.28922501 -64.3112381 134.26253204 -64.31800842 133.20472717 C-64.33769884 129.81096315 -64.34939541 126.41724332 -64.359375 123.0234375 C-64.36345053 121.86126835 -64.36752605 120.6990992 -64.37172508 119.5017128 C-64.39256898 113.34879994 -64.40687726 107.19590926 -64.41625977 101.04296875 C-64.42731271 94.70476609 -64.46170507 88.36691558 -64.50143147 82.0288372 C-64.52764333 77.14044567 -64.53595575 72.25213742 -64.53954124 67.36368179 C-64.54439635 65.02823639 -64.55597942 62.69279444 -64.57457924 60.35741806 C-64.59906437 57.0789822 -64.59798807 53.80144952 -64.59106445 50.52294922 C-64.60387451 49.56982346 -64.61668457 48.61669769 -64.62988281 47.63468933 C-64.53379805 35.06737434 -58.92828492 23.37326562 -50.37109375 14.28125 C-35.4966901 0.30832536 -19.29365957 -0.07827821 0 0 Z " fill="#73BCD4" transform="translate(114.12109375,261.46875)"/>
<path d="M0 0 C2.35067403 -0.00269934 4.70134697 -0.00658543 7.05201721 -0.01159668 C11.96325376 -0.01747202 16.874198 -0.0089928 21.78540039 0.00976562 C28.05041786 0.03254085 34.31474919 0.01942789 40.57974148 -0.00452423 C45.42964251 -0.01904602 50.27938352 -0.01434678 55.12928963 -0.00401306 C57.4379389 -0.00136274 59.74660315 -0.00455519 62.05523491 -0.01393127 C80.91335736 -0.07372237 96.18257421 1.38260167 110.69140625 14.84375 C124.25668717 29.44752133 124.49658506 45.78338622 124.4453125 64.58203125 C124.45055661 66.92791489 124.45683595 69.27379642 124.46409607 71.61967468 C124.47446854 76.52251141 124.46998517 81.42505735 124.45532227 86.32788086 C124.43815798 92.57486962 124.46161861 98.8209365 124.49681187 105.06782246 C124.51889779 109.90923524 124.51731702 114.75043136 124.50904655 119.59187889 C124.50823281 121.89330238 124.51498435 124.19474272 124.52981758 126.49611855 C124.6203008 143.0759163 123.91412642 158.14694831 112.87890625 171.53125 C112.12867188 172.44777344 112.12867188 172.44777344 111.36328125 173.3828125 C103.50742791 182.03950526 92.42617866 187.5250026 80.87890625 188.53125 C77.47675592 188.66848968 74.07893756 188.67819322 70.67431641 188.67651367 C69.18973183 188.68155159 69.18973183 188.68155159 67.67515564 188.68669128 C64.42274703 188.6961439 61.17039021 188.69814143 57.91796875 188.69921875 C55.64407328 188.70243495 53.37017801 188.70579929 51.09628296 188.70930481 C46.33697022 188.71528161 41.5776756 188.71714617 36.81835938 188.71655273 C30.73696472 188.71645112 24.65568683 188.73010936 18.57431984 188.74732494 C13.87984692 188.75847306 9.185402 188.76047109 4.49091721 188.75994301 C2.2495623 188.76111865 0.00820656 188.76551694 -2.23313522 188.77327538 C-5.37474379 188.78313342 -8.51610177 188.78017445 -11.65771484 188.77416992 C-12.57231979 188.77978943 -13.48692474 188.78540894 -14.429245 188.79119873 C-29.08832371 188.72042953 -40.14839591 184.1618389 -50.83203125 174.00390625 C-64.46286399 159.27981559 -64.71458077 143.04547265 -64.58203125 124.1171875 C-64.57964195 121.85283514 -64.57874253 119.58848076 -64.57925415 117.3241272 C-64.57614083 112.59876942 -64.55968715 107.87371819 -64.53271484 103.1484375 C-64.49869866 97.11545291 -64.49108841 91.0828034 -64.49260521 85.04973412 C-64.49205942 80.38093922 -64.4810594 75.7122164 -64.46660233 71.04344559 C-64.46027491 68.81967335 -64.45630502 66.59589302 -64.45481491 64.37211227 C-64.45044065 61.25753841 -64.4328531 58.14330765 -64.41162109 55.02880859 C-64.41252747 54.12565414 -64.41343384 53.22249969 -64.41436768 52.29197693 C-64.26532122 37.21268139 -60.18852683 24.81878898 -49.59765625 13.78515625 C-45.4669537 10.02582601 -41.15560113 6.95504876 -36.12109375 4.53125 C-35.42957214 4.19805756 -34.73805054 3.86486511 -34.02557373 3.52157593 C-23.11102278 -0.90702534 -11.58193827 -0.04699022 0 0 Z " fill="#73BCD4" transform="translate(325.12109375,261.46875)"/>
<path d="M0 0 C4.23410406 0.73928801 5.97709109 1.63738173 8.9375 4.6875 C10.21611615 7.24473229 10.05086609 9.05487102 10.03515625 11.9140625 C10.03193359 12.9453125 10.02871094 13.9765625 10.02539062 15.0390625 C10.01282227 16.65941406 10.01282227 16.65941406 10 18.3125 C9.99548828 19.40046875 9.99097656 20.4884375 9.98632812 21.609375 C9.97451776 24.30213789 9.95804778 26.99479188 9.9375 29.6875 C10.6080542 29.66131592 11.2786084 29.63513184 11.96948242 29.6081543 C15.02108128 29.50392762 18.07230542 29.43909377 21.125 29.375 C22.18009766 29.33310547 23.23519531 29.29121094 24.32226562 29.24804688 C32.13328583 29.12484466 32.13328583 29.12484466 36.13671875 31.92578125 C38.44920982 35.47226973 38.65706421 37.4144211 38.4375 41.53125 C37.63750747 44.98121778 35.68157005 46.59677996 32.9375 48.6875 C30.48474859 49.9138757 28.8869219 49.80165314 26.1484375 49.78515625 C25.20742187 49.78193359 24.26640625 49.77871094 23.296875 49.77539062 C22.31203125 49.76701172 21.3271875 49.75863281 20.3125 49.75 C18.82363281 49.74323242 18.82363281 49.74323242 17.3046875 49.73632812 C14.8488984 49.72452145 12.39322896 49.708054 9.9375 49.6875 C9.95844727 50.26193848 9.97939453 50.83637695 10.00097656 51.42822266 C10.08463764 54.05613374 10.1363146 56.6837639 10.1875 59.3125 C10.22101563 60.21613281 10.25453125 61.11976563 10.2890625 62.05078125 C10.37288198 67.79241534 9.88354259 71.1878759 5.9375 75.6875 C2.2001144 78.1790904 0.36418417 78.14543285 -4.0625 77.6875 C-6.81579021 75.89187595 -8.58877461 74.63495078 -10.0625 71.6875 C-10.14699628 69.9470583 -10.16973024 68.20340278 -10.16015625 66.4609375 C-10.15693359 65.4296875 -10.15371094 64.3984375 -10.15039062 63.3359375 C-10.14201172 62.25570312 -10.13363281 61.17546875 -10.125 60.0625 C-10.12048828 58.97453125 -10.11597656 57.8865625 -10.11132812 56.765625 C-10.09951776 54.07286211 -10.08304778 51.38020812 -10.0625 48.6875 C-10.69752441 48.71368408 -11.33254883 48.73986816 -11.98681641 48.7668457 C-14.88678878 48.87130395 -17.7863647 48.93597747 -20.6875 49 C-21.68652344 49.04189453 -22.68554688 49.08378906 -23.71484375 49.12695312 C-32.06370554 49.26517931 -32.06370554 49.26517931 -35.734375 46.44921875 C-38.74235856 42.88102349 -38.82866117 41.3049175 -38.53125 36.84375 C-37.84239736 33.67502784 -36.39450445 31.88232772 -34.0625 29.6875 C-31.55752996 28.43501498 -29.85396726 28.57375594 -27.0546875 28.58984375 C-26.06855469 28.59306641 -25.08242187 28.59628906 -24.06640625 28.59960938 C-23.03386719 28.60798828 -22.00132813 28.61636719 -20.9375 28.625 C-19.37708984 28.63176758 -19.37708984 28.63176758 -17.78515625 28.63867188 C-15.21088038 28.65048048 -12.63671854 28.66694925 -10.0625 28.6875 C-10.10963135 27.78825806 -10.10963135 27.78825806 -10.15771484 26.87084961 C-10.28336914 24.12262574 -10.36075562 21.37500696 -10.4375 18.625 C-10.51291016 17.21057617 -10.51291016 17.21057617 -10.58984375 15.76757812 C-10.71641315 9.71334203 -9.92491374 6.36935857 -5.75854492 1.90136719 C-3.74312281 0.45892027 -2.46403694 0.1449263 0 0 Z " fill="#51717B" transform="translate(144.0625,104.3125)"/>
<path d="M0 0 C3.08865372 2.1157571 5.49389889 4.73481886 8 7.5 C9.01900391 8.57314453 9.01900391 8.57314453 10.05859375 9.66796875 C11.72531071 11.42858526 13.37049874 13.20500251 15 15 C18.48461054 13.42841788 20.585567 11.44021386 23.16186523 8.60546875 C30.78681917 0.26914529 30.78681917 0.26914529 35.9375 -0.5 C39.1308737 -0.43624844 40.14468283 0.08741254 43 1.8125 C45.44675008 4.4886329 45.93165646 5.51183187 46.4375 9.125 C45.43496451 18.00460002 37.49421716 23.57372077 31 29 C32.64990206 33.29597139 35.81742807 36.00517646 39.0625 39.125 C45.96794314 45.81389614 45.96794314 45.81389614 46.0546875 49.0234375 C45.74772563 53.0406341 45.51466681 55.36056547 42.9375 58.5625 C39.06117102 60.45942695 36.12593781 61.31800791 32 60 C28.30651547 57.34249284 25.17607637 54.24689797 22 51 C21.13568359 50.18789063 21.13568359 50.18789063 20.25390625 49.359375 C19.11829129 48.29131787 18.04867237 47.15353961 17 46 C17 45.34 17 44.68 17 44 C11.99202591 48.26210561 7.2413756 52.67523394 2.6640625 57.3984375 C0.22640176 59.74454291 -0.86345327 59.98711823 -4.3125 60.3125 C-8.57536111 59.95124058 -10.01992054 58.98007946 -13 56 C-14.63023814 52.73952371 -14.4673535 50.62198965 -14 47 C-12.02219681 43.97902622 -9.56083325 41.53211362 -7 39 C-6.25878906 38.24589844 -5.51757812 37.49179687 -4.75390625 36.71484375 C-2.85202513 34.79262165 -0.93451385 32.88929145 1 31 C-0.64990206 26.70402861 -3.81742807 23.99482354 -7.0625 20.875 C-13.8800738 14.27121771 -13.8800738 14.27121771 -14.3125 9.6875 C-13.95124058 5.42463889 -12.98007946 3.98007946 -10 1 C-6.67801946 -0.66099027 -3.5556089 -0.80894806 0 0 Z " fill="#51707A" transform="translate(128,326)"/>
<path d="M0 0 C1.95728027 -0.0236412 1.95728027 -0.0236412 3.95410156 -0.04776001 C5.37045133 -0.03880995 6.78679336 -0.02855489 8.203125 -0.01708984 C9.66374108 -0.02046055 11.12435443 -0.0253153 12.58496094 -0.03158569 C15.64154852 -0.03894524 18.69740399 -0.02828262 21.75390625 -0.00488281 C25.66504184 0.02360621 29.57446198 0.00719705 33.48553467 -0.02274513 C36.50029341 -0.04084401 39.51464778 -0.03504861 42.52941895 -0.02210617 C43.97107142 -0.01877923 45.41276103 -0.02283427 46.85437012 -0.03450394 C48.87165592 -0.04725137 50.88907106 -0.0243647 52.90625 0 C54.05254883 0.00397797 55.19884766 0.00795593 56.37988281 0.01205444 C60.41421021 0.8455286 61.90387486 2.47619828 64.453125 5.64697266 C65.5879391 9.618822 65.89036324 11.66318662 64.203125 15.45947266 C62.453125 17.64697266 62.453125 17.64697266 59.453125 19.64697266 C56.65835571 19.91439819 56.65835571 19.91439819 53.22509766 19.9375 C51.94011383 19.9502597 50.65513 19.96301941 49.33120728 19.97616577 C47.92653555 19.9792234 46.5218618 19.98145117 45.1171875 19.98291016 C43.67613594 19.98933769 42.23508568 19.99606602 40.79403687 20.00308228 C37.77281673 20.01505827 34.75171095 20.01876282 31.73046875 20.01757812 C27.86440526 20.01737501 23.99907747 20.04466727 20.13318825 20.07912254 C17.1562668 20.10139292 14.17952231 20.10541563 11.20252609 20.10435867 C9.77759645 20.10671482 8.35266194 20.11553924 6.92781448 20.13102341 C4.9319535 20.1506805 2.93587653 20.14232355 0.93994141 20.1328125 C-0.19462494 20.13566254 -1.32919128 20.13851257 -2.49813843 20.14144897 C-6.21590284 19.53846265 -7.87150955 18.2448966 -10.546875 15.64697266 C-12.12585553 12.48901159 -12.36615671 9.0402663 -11.546875 5.64697266 C-7.90388754 1.19506649 -5.7251984 0.01986798 0 0 Z " fill="#51707A" transform="translate(325.546875,133.35302734375)"/>
<path d="M0 0 C1.2684375 0.00137466 2.536875 0.00274933 3.84375 0.00416565 C6.52467139 0.01322588 9.20248203 0.03360356 11.8828125 0.07397461 C15.30941262 0.1249463 18.73468622 0.13641703 22.16162109 0.13413906 C25.441211 0.13515337 28.72052511 0.16168382 32 0.1875 C33.84078125 0.19250771 33.84078125 0.19250771 35.71875 0.19761658 C36.8634375 0.21675613 38.008125 0.23589569 39.1875 0.25561523 C40.19167969 0.26705063 41.19585937 0.27848602 42.23046875 0.29026794 C46.09709441 0.85030917 48.89767458 2.33855232 51.375 5.37890625 C52.33974605 8.94846664 52.01783466 12.15079569 51 15.69140625 C48.74548302 18.62227832 47.51557135 19.51954913 44 20.69140625 C42.23769392 20.80402002 40.47155005 20.86043202 38.70581055 20.88427734 C37.08348763 20.90837173 37.08348763 20.90837173 35.4283905 20.93295288 C30.48717917 20.97744586 25.5461011 21.01845853 20.60473633 21.04150391 C17.99852576 21.0580719 15.39236077 21.08537255 12.78637695 21.12353516 C9.02791785 21.17828502 5.27052286 21.20017546 1.51171875 21.21484375 C0.34903976 21.23751312 -0.81363922 21.2601825 -2.0115509 21.28353882 C-11.03230846 21.25997386 -11.03230846 21.25997386 -14.72070312 18.29907227 C-16.94972351 15.74892588 -17.87401005 14.57216781 -18.1875 11.25390625 C-18.28417969 10.53332031 -18.38085938 9.81273437 -18.48046875 9.0703125 C-16.45111513 -0.97746275 -8.44638057 -0.14836756 0 0 Z " fill="#51717C" transform="translate(338,344.30859375)"/>
<path d="M0 0 C3.7038954 3.10093569 5.31702439 4.84748521 6.5625 9.5625 C6.71325378 14.00973651 5.87228216 16.39021819 3.6875 20.25 C0.0558442 23.70007301 -2.60941079 25.08933121 -7.625 25.5625 C-12.68214519 25.13392837 -15.57020185 23.16652797 -18.953125 19.4453125 C-21.47425649 15.37383003 -21.03296836 10.85966333 -20.3125 6.25 C-18.70237081 3.01057341 -16.37502053 1.05605006 -13.5 -1.125 C-8.35000258 -2.59642784 -4.65112529 -2.45719826 0 0 Z " fill="#51717B" transform="translate(362.3125,375.75)"/>
<path d="M0 0 C4.33550625 2.79399292 6.36148104 5.18883174 7.75 10.1875 C7.82562805 14.5739267 6.96808434 17.00430101 4.8125 20.8125 C0.55389667 24.75949821 -2.21508263 26.17229024 -8.08984375 26.09765625 C-12.2755798 25.52864558 -15.06826002 23.04660232 -17.82421875 20.0078125 C-20.35125604 15.93848598 -19.90808015 11.42287852 -19.1875 6.8125 C-17.56904438 3.55632142 -15.23976615 1.58416184 -12.3125 -0.5625 C-7.90416955 -1.85906778 -4.27897212 -1.59412687 0 0 Z " fill="#51717B" transform="translate(361.1875,312.1875)"/>
</svg>
